<svg id="Layer_1" data-name="Layer 1" xmlns="http://www.w3.org/2000/svg" viewBox="0 0 392.42 409.81"><defs><style>.cls-1{fill:#fff;}.cls-2{fill:none;stroke:#fff;stroke-miterlimit:10;stroke-width:40px;}</style></defs><path class="cls-1" d="M444.5,381.34c.05,1,1.31,2.5,2.21,1.49l-1-3.3Z" transform="translate(-159.85 -115.11)"/><path class="cls-1" d="M455.09,381.86a8.64,8.64,0,0,0-.22-3.77,6.91,6.91,0,0,0-2.42-3.52c.85,3.33-.18,2.45.63,6.45-.83,1-2.45.31-2.91-.83.07,1-2,.44-1.55,2.57,2.77,1.3,4.7.21,5.3-2.76C454.72,380.34,454.84,381.3,455.09,381.86Z" transform="translate(-159.85 -115.11)"/><path class="cls-1" d="M501.37,265.88l-.36.85A1.49,1.49,0,0,0,501.37,265.88Z" transform="translate(-159.85 -115.11)"/><path class="cls-1" d="M476.72,189c.4.48.81.53,1.08.4C477.32,189,476.89,188.71,476.72,189Z" transform="translate(-159.85 -115.11)"/><path class="cls-1" d="M472,175.27c.09.31.2.54.3.81C472.38,175.64,472.33,175.28,472,175.27Z" transform="translate(-159.85 -115.11)"/><path class="cls-1" d="M501.37,265.88c.33-.73.62-1.46.93-2.2C501.21,263.59,501.58,264.83,501.37,265.88Z" transform="translate(-159.85 -115.11)"/><path class="cls-1" d="M460.22,365.07a2.56,2.56,0,0,0,.17,1.31,6.1,6.1,0,0,1,.24-1Z" transform="translate(-159.85 -115.11)"/><path class="cls-1" d="M502.76,301.73l-.07.67a10.82,10.82,0,0,0,1.26.73Z" transform="translate(-159.85 -115.11)"/><path class="cls-1" d="M496.59,329.51c.35-.58-2.2-1.79-3.26-2.44,1,.74,1.3,1.38,1.3,2A6.53,6.53,0,0,0,496.59,329.51Z" transform="translate(-159.85 -115.11)"/><path class="cls-1" d="M473,366l0,.86C472.9,366.59,473,366.24,473,366Z" transform="translate(-159.85 -115.11)"/><path class="cls-1" d="M504.84,282a3.44,3.44,0,0,0,1-.23A2.23,2.23,0,0,0,504.84,282Z" transform="translate(-159.85 -115.11)"/><path class="cls-1" d="M370.19,411.16c0,.2.07.32.09.49C370.37,411.34,370.38,411.14,370.19,411.16Z" transform="translate(-159.85 -115.11)"/><path class="cls-1" d="M402.54,416.26l-.35.29c.16.51.31,1,.5,1.5Z" transform="translate(-159.85 -115.11)"/><path class="cls-1" d="M456.57,152.14c0,.07.05.08.07.13C457.48,152.57,457.09,152.31,456.57,152.14Z" transform="translate(-159.85 -115.11)"/><path class="cls-1" d="M232.51,157c1.91-.12,1.64,1.26,1.61,2.52s.09,2.4,2.48,1.91c-.53-.25-.67-1.67-1.1-2.89S234.34,156.31,232.51,157Z" transform="translate(-159.85 -115.11)"/><path class="cls-1" d="M460.87,364.73a5,5,0,0,1,.5-.87A1.56,1.56,0,0,0,460.87,364.73Z" transform="translate(-159.85 -115.11)"/><path class="cls-1" d="M236.6,161.42h0l.48-.11Z" transform="translate(-159.85 -115.11)"/><path class="cls-1" d="M402.45,123.68a3.57,3.57,0,0,0,.15,1.37A2.41,2.41,0,0,0,402.45,123.68Z" transform="translate(-159.85 -115.11)"/><path class="cls-1" d="M440.54,147.25l-.69-.94A2.68,2.68,0,0,0,440.54,147.25Z" transform="translate(-159.85 -115.11)"/><path class="cls-1" d="M379.09,121c-.54-.34-.65-.76-1.53-.58a1.76,1.76,0,0,0,.17.39C378.1,120.46,378.52,120.37,379.09,121Z" transform="translate(-159.85 -115.11)"/><path class="cls-1" d="M355.39,117.31a6.17,6.17,0,0,0,.39.6l.77-.08Z" transform="translate(-159.85 -115.11)"/><path class="cls-1" d="M306.91,410.6a10.56,10.56,0,0,1,.26,2.68C307.39,411.27,310.5,411.35,306.91,410.6Z" transform="translate(-159.85 -115.11)"/><path class="cls-1" d="M461.56,365.91c-.53-.49-.73-.83-.69-1.18a4.49,4.49,0,0,0-.24.67A1.65,1.65,0,0,0,461.56,365.91Z" transform="translate(-159.85 -115.11)"/><path class="cls-1" d="M373.35,142.4c-1.05-.37-2.1-.8-3.17-1.11A15.84,15.84,0,0,0,373.35,142.4Z" transform="translate(-159.85 -115.11)"/><path class="cls-1" d="M210,304.31l.47.68A.65.65,0,0,0,210,304.31Z" transform="translate(-159.85 -115.11)"/><path class="cls-1" d="M360.39,140.12a5.19,5.19,0,0,0-1.62-2.18,2.28,2.28,0,0,0-.47.66Z" transform="translate(-159.85 -115.11)"/><path class="cls-1" d="M307.17,413.31v0Z" transform="translate(-159.85 -115.11)"/><path class="cls-1" d="M329.68,410.47c-3.06-.39-1.8,3.45-2.68,5.49-3.95.65-1.46-2.9-2.49-4.92-2.4.7-4.71,3.74-6.46,3.32,0-.62-.32-.9.2-1.58-1.47,1.21-3.33.92-5.21.64a11.07,11.07,0,0,0-2.87-.18,5.3,5.3,0,0,0-2.86,1.05,2.39,2.39,0,0,1-.14-1,16.55,16.55,0,0,1-.86,5c-1.46-.3-3.33,1.49-3.19-1,.85.33,1.2-.58,1.81-1.18l-1.78.56c-.33-3.72,2.36-.55,3.05-3-1.56.12-3.39.65-5.07.87s-3.25.23-4.14-.67c.71-3.3,5.39.65,3.53-3.17.94.77,1.89,1.58,2.88,2.3-.92-5.86,1.87,1,1.27-5.21-3.79-2.26-5.21.13-8.86-2.42-1.64,1.35-.77,2.7-2.44,4.05-1.82.17-2.8-.44-3.32-1.32a6.28,6.28,0,0,1-.59-3.16c0-2.28.2-4.2-2.82-3.31a41,41,0,0,1-3.36,2.48c-1.15.6-2.24.49-3-1.36,1-.87,2-1.75,3-2.63a2.59,2.59,0,0,0-2.19-.62,6.71,6.71,0,0,0-2,.62c-1.22.51-2.31.78-3.69-1.69,1.58-.76,3.87,1.05,3.51.26-1.05-4.35-3.14.52-5.22-.86l1.45-3.12c-4.51-2.36-10.47-3.39-15.31-6.07.84-.65,2.21-1,1.78-2.56A23,23,0,0,1,253.1,380a22.56,22.56,0,0,1-4.81-7.85l-3.83.11c-.35-.46.29-1.68,1.13-1.59-.82-2.62-1.49,1.13-3.16,1-1.13-.95,0-2.55,1.29-2.42a27.08,27.08,0,0,1-7.94-4.64,20.15,20.15,0,0,1-1.75-1.7,15.17,15.17,0,0,1-1.38-1.89,8,8,0,0,1-1.31-4.09l1.22.25c-.53-1.84-2.34-1.82-4-1.92s-3.15-.3-2.91-2.49l.79.27a54.42,54.42,0,0,0-2.88-5.37L222,345c-.53-.87-1-1.75-1.45-2.62s-.89-1.74-1.27-2.61a21.46,21.46,0,0,1-.84-2.66,13.68,13.68,0,0,1-.4-2.67,11.18,11.18,0,0,1,.28-2.69c-2.13.33-2.55-1.62-3-3.44s-1-3.47-3.86-2.7a23.19,23.19,0,0,1,1.83-4.93,9.16,9.16,0,0,0,.61-2.17,23.37,23.37,0,0,0,.36-3.63c-.08-.81-1.15-1.15-2.31-1.53s-2.42-.81-3-1.74l3-.76c-1.25-.64-2.52-1.3-3.79-2,1.12-.74,2.23-1.47,3.36-2.17L210.46,305a2.42,2.42,0,0,1-2,1.88,4.9,4.9,0,0,1-.06-4.84c.71-1.58,1.84-2.79,2.62-2.92l-.87-1.64-.82-1.74c-.56-1.17-1.07-2.36-1.61-3.55,1.25.07,1.77,1.26,2.64,2.15-3.45-3.63,3.16-.94,0-4.28-.67.53-1.85-.14-2.48-.18,1.74-1.91,1.54-5.95.69-9l2.14.52c.38-5.41-1.15-11.43-.83-17.53-1.08,2.14-4.74,1.51-5-.34l3.29-.57c-2-1.27-1.33,1.84-3.67-.69.51-2.31,3.79-1.34,4.78,0l-1-2.84c1-.1,1.45.58,2.68.83-2-1.29,3.59-4.46.25-6.36l1-.06c.6-6-.12-8.78.5-13.59-2.77-.58-1.8-2.33-3.77-4.21,1.58-3.42,4.61-6.75,5.54-10.81-.52-3.24-2-1.51-3.24-3.29,1.25.27,2.15-.62,2.86-1.23s1.27-.92,1.78.37c.61-2.4,1.06-3.89,1.39-5.61.19-.84.33-1.75.49-2.85s.32-2.38.61-3.94c-1.24.08-2,.56-2.6-.19.18-1.22,2.17-1.79,3.16-1l.1.39a5.69,5.69,0,0,1,.65-2.66,8.18,8.18,0,0,1,1.7-2.12,12,12,0,0,1,1.14-.84l.6-.39c.2-.12.39-.23.66-.41,1-.64,2.05-1.27,3.05-1.88,4.06-2.46,7.75-4.78,7.57-8.86v.44l1.82-6.73c2.18-2,.39,2.58,3,1.9a11,11,0,0,1,4.23-7.6c1.89-1.67,3.8-3,4.61-5.91,4.14,1.17,6.46-1.38,8.61-3.7l.79-.87.21-.22.28-.26.56-.52a23.33,23.33,0,0,1,2.31-1.89,7.82,7.82,0,0,1,5.15-1.66l-1.3-1.26c.23-2.29,2.07-.21,3.21-.5-.92-1.05-2.25-.38-2-1.71,4.62-4.51,10.52-7.55,16.6-9.65a95.16,95.16,0,0,1,17.42-4c1.51-.19,1.66-2.57,1.92-4.52s1-3.5,4.25-2l-1,3.55c4.08-2.82,9.05-3.57,13.93-4.11s9.79-.93,14.28-3c-.49.81-.41,1.8-1.32,1.86,1.09,1.11,2.87,1,4.33.37a5.73,5.73,0,0,0,1.82-1.21,2.13,2.13,0,0,0,.78-1.46c1.4.2.38,1.76,1.26,2.74.95.7,2.09-.09,3.16-.75s2-1.17,2.53,0c.16.4-.54.76-.89.93,1.25-1.11,5.68.51,4.64-2.3a9.88,9.88,0,0,0,4.84.43c1.56-.12,3-.29,4.3.74,1.06-1.42,2.48-.85,3.75-.47s2.42.58,3.05-1.51c-.48,2.22.85,3.39,2.6,3.78a7.51,7.51,0,0,0,2.8.06,6.49,6.49,0,0,0,2.45-.78c-1,1.17,1.54,1.8.3,3.46,2.39.47,4.79.16,4.94-2.17,1.55,3.23,4,2.76,6.24,2.44s4.2-.35,4.34,3.33c1.94-.05,3.81.08,5.67.2s3.69.27,5.46.58,3.52.58,5.25.92,3.37.85,5,1.32c-1.08,2-2.8,1.32-4.48.7s-3.35-1.08-4.12,1.13c.81.09,1.61.12,2.37.15s1.5,0,2.23,0c1.45,0,2.85,0,4.22,0a13.2,13.2,0,0,1,7.85,2.63c1.12,1.35-1.75,1.25-2.6,1.72a16.91,16.91,0,0,1,4.43,1.59,38.34,38.34,0,0,1,3.92,2.24,23.81,23.81,0,0,0,7.92,3.68c-.25.33-1,.36-1.67.32,1,.51,1.72,2,2.8.26l-1.21-.16c.12-1.73,1.9-2.39,3.84-2.72,1-.16,2-.25,2.81-.37a3.27,3.27,0,0,0,1.74-.5c-5,3.54,3.64,4.66-3.31,8.68a2.81,2.81,0,0,0,2.85-1.25c.62,1,.37,1.8-1.46,2.36a7.87,7.87,0,0,0,1.27.4,4.71,4.71,0,0,0,.88.08,7,7,0,0,0,1.41-.19,2.53,2.53,0,0,1,2.78,1c-.71.7-1.46.5-2.5,1.11a11.8,11.8,0,0,1,3.71.06,4.56,4.56,0,0,1,2.88,2.42c-.57.27-.92,1-1.51.38,1.8,1.8,4.22,2.66,6.46,3.88a9.76,9.76,0,0,1,5.29,5.68c-4.51,1.08,0,2.47-2.9,4.85.91.63,1.79,1.28,2.67,2l.81-2.06a10.23,10.23,0,0,0,3.14,2.66,4.23,4.23,0,0,1,2.21,3l-2.4-.93c1.11,1.35,2.26,2.67,3.33,4.06-.09-1.09-.2-2.19-.33-3.27,3.14,1.41,3.89-2.75,4.94,1-.74-.46,1.46,2.47.24,4.86h0c1.7.63,3.55,1.28,3.71,3.58-.8,1-3.84,1.57-4.38,2.26,1.69-.14,2.66,1.2,3.64,2.58s2,2.82,3.85,2.89a4.78,4.78,0,0,0-3,1l2.78-.06c-.2,1.53-.48,1.86-2,2.32,1.17,3.7,3.82-3.08,3.84,2-.34-.25-.61,0-1.26-.48.4,2.33,1.66,4.2,2.74,6.09a14.73,14.73,0,0,1,2.38,6.22c-3.07,2.54-2.2-3.36-4.66-.85,2.85,5.9,8.91,10.76,9.77,16.65l.08-1.16c2.65-.41,2.36.88,1.76,2.46s-1.54,3.39,0,4.51c-.52-.6-3.07-.25-2.45-.2a14.39,14.39,0,0,0,1.42,5.61c.82,2.29,2,4.83,3,7.91l-1.41-.69c-1.05,2.47-.4,6.38-1,9,1.37.75,1.16,2.25,3.13,1.31a9.28,9.28,0,0,0-2.72,5.91,18.27,18.27,0,0,0,.94,5.68c1.06,3.74,2.14,7.55-1.42,10.75.06-.84-1-2.11-1.07-1.44.27,2,.4,4,.59,6.08,2.35-.17,1.48-.6,3.42-1.66a4.9,4.9,0,0,1,1.89,4.34c-1.1-3-3.69-.48-5.13.45.73-.08,1.44.43,2.17.44-4.55,2.47,4.55,1.3,1,5.16l-1.15-.46c.33,1.72,1.57,3.54.82,5.21-2.76.1-.82-2-2.95-2.56-.2,1.2.77,2.65,1.39,4s.8,2.67-.78,3.39c-.44-1.22-.05-2.67-.5-3.85-3.67,1.53-3,2-3.9,3.5l.12-.14c-.85,1.13-1.72,2.23-2.56,3.32l1.11-.68c2.89,2.52,2.55,4.1,2,5.68a16.52,16.52,0,0,0-.9,2.46,6.35,6.35,0,0,0,.44,3.48c-1-2.81-1.61-3.17-2.12-3.12a2.43,2.43,0,0,1-2.41-.2c-1.23.6-2.8,1.67-3.36.87,1.31,2.87-3.2,2.15-1.24,6.27-.93-.32-1,1.87-3,.39-.46,2.66,1.8.2,2.8.93.6,2.53-1.35,4.2-3.25,6.12s-3.78,4.09-3.05,7.65c-.59,5.24,1.91,7.57,1.09,12.44-1.06.3-1.68-.43-2-1.21a6.32,6.32,0,0,1-.45-1.62c-2.48,1.44-3.11,3.17-3.38,5.69-.48-.84-1.35-.81-2.63-.81-.72,1.64,2.31,2.94-.2,4.12a18.36,18.36,0,0,1-2.25-3.66,31.86,31.86,0,0,0-.24,3.47c0,.6-.07,1.2-.14,1.8a9,9,0,0,1-.39,1.68,2.15,2.15,0,0,1-1.22-1.73c-.07-.36-.11-.72-.15-1.07a4.57,4.57,0,0,0-.23-1c-.17.58-.43,1.13-.67,1.75s-.49,1.28-.71,1.9a5.44,5.44,0,0,0-.09,3.89c.59-.08,1.21-.15,1.8-.27-.58.68-1.83-1.43-1.75-2.2-.05-1.44.58-1.67,1.34-1.6a5.13,5.13,0,0,1,2.07.84,15.7,15.7,0,0,1-.57,1.54c1.31.75,2.19.71,2.83.28a3.34,3.34,0,0,0,1.19-2.28c.44-2,.2-4.52,1.22-5.75.94,1.13,1.83,2.25,2.73,3.41-.29-1.58-.71-3.17-1.1-4.71,1.29,0,3.56.71,3.21,2.46,3.05-1-.17-2.58,2.85-3.23.42,0,.54.16.58.43l.09-2.67c.54.83,2.77,1.08,1.52,2.07,4.19-2.62.51-7.51,4-7.45l.06.43c1.44-5.86-2.43-1.91-3.65-7.42l8.05.76-2.47-1.88c.37-.49,1.11-1.45,2.1-.71-.87-2.94-1.35-.25-2.54-2.29,3.77-1.36,2.37-7.72,7-6.16-1.62-1.95-2.82,1.69-2.91-1.79,5.08,1.52.77-3.6,4.08-4.91,2.07,1.91-.32,3.53,3,2.22-1.69-1.72-.91-2.74.33-3.79s3-2,3-3.31c-1.67-.72-1.56-2-1-3.69.23-.83.57-1.76.86-2.73.14-.48.26-1,.36-1.48a8.51,8.51,0,0,0,.09-1.51c.54.28,1.55-1.33,2.59-3.46.5-1.08,1.06-2.27,1.59-3.4s1-2.21,1.5-3.05l.58.22a3.59,3.59,0,0,1-2.41-3.29c-.17-1.39.05-3-.13-4.33,2.16.4,2.95,1,3.7,2.61.12-.85.26-1.7.36-2.55a4.15,4.15,0,0,1-1.84-3.3l2.65.95a9.94,9.94,0,0,0-.23-2.63c-.21-.89-.47-1.81-.66-2.74a8.66,8.66,0,0,1,.47-5.92c-2.54-.35-7.32,2.9-8.76-1.59,1.39-.09,3.77-.14,4.26,1.06-.16-.39-1.05-1.42-.44-2.17.76.63,1.49,1.27,2.23,1.91,1.14-1.89-1.88-1.11-1.6-2.64,2,.11,1.44-1.1,3-.81.18.4-.86,1.33-.11,2,.42-1.75,1.66-3.85,3.18-4.53-1.13.13-2.64-.07-2.89-1.37-.11-3.34,2.39-1.11,3.42-3.07-1.34-.83.05-3-2.91-3,0-1,1.38-1.17,2.17-1.57-1.27-1.73-.62-8.12-3.68-6l-.19.45c-.06-.08-.07-.17-.14-.27h0a9.6,9.6,0,0,1-1.2-4.23,23.26,23.26,0,0,1,.29-4.38c.18-1.49.47-2.91.51-4.46a10.5,10.5,0,0,0-.73-4.51l1-.17c-1.76-3.31-2.53-7.47-5.3-9.09a2.66,2.66,0,0,1,2.21-2.78c-1.55-2.2-2.68-2.08-2.42-6.09,2.5,1.81,1.13-1.36,2.09,2-.34-3.41.87-4.66-2.87-7,2.78.22,2.15-3.38.93-4.52l-.94,2.71a13,13,0,0,1-1.54-4.48c1.15-.09,2.31-.17,3.43-.29a7,7,0,0,0-1.13-5.14,22,22,0,0,0-3.5-3.65,11.11,11.11,0,0,1-3-3.38,5.14,5.14,0,0,1,.25-4.66c-2.9-.62.22,4.14-3,3.84-1-3,1.7-8.19,1.22-9.11-.21-2.41-1.83-2.71-3.45-3s-3.32-.54-3.95-2.81a3.82,3.82,0,0,1-5.84.88c-1.22-2.87,2.19-5.89,4.08-4.7.5.6.36,1.11,0,1.29.89.66,2,1.57,2.48-.19l-1.23.26c.24-2-2.25-5.65-.05-5.83-2.25-1.46-2.19.18-1.76,2a10.72,10.72,0,0,0-2.19-4.88,18.34,18.34,0,0,1-2.74-4.68c-.14.94-.93,2.24-1.31,1.69-1.16-3-2.07-3.18-3-3.05s-1.88.61-3.32-.89c0-3,4-2,.13-4.39-.68-2.82,2.09-2.42,3.52-2.17a6.21,6.21,0,0,1-3.58-4.28c-.52-1.75-.81-3.57-1.47-4.61l2.23,1a8.22,8.22,0,0,1-2.82-2.25l-.87,2.56c-.56-1.24-1.33-2-.62-2.72-1.05.05-1.56.94-2.25,1.74a3.44,3.44,0,0,1-3.22,1.39c-.19-1-1.3-1.7-2.28-2.42s-1.62-1.52-.87-2.95c1.79,2.26,2.19,1.57,2.65.65s.95-2.08,3-.58a5.86,5.86,0,0,1-2.67-2.43c.06-.41.58-.36,1-.24a6.94,6.94,0,0,0-.94-1.67,1.77,1.77,0,0,0-.81-.6,2.42,2.42,0,0,0-1.73.37c-1.24.6-2.69,1.48-4.68-.1,1.58-1,1.07-3.44.15-3.63.84.62.58,1.39-.15,2a5.66,5.66,0,0,1-3.12,1c-1.85-3-3.47-1.16-4.75-2.25l1.21,1.63a2.26,2.26,0,0,1-2.19.32c-.74-.25-1.57-.71-2.66-1,.59-1.26,2.22.27,1.88-.66-1.89.65-2.61-.75-3.39-2.35s-1.62-3.42-3.67-3.34c-.79-1.83,1.55-3,.71-4.37a3.4,3.4,0,0,1-3.54-2.14,3.83,3.83,0,0,0-3.61-2.35c0,2.67.39,2.23-3.21,3,2.22.54,4.51,1,6.72,1.64-1.8.28-3.63.67-5.42,1a9.49,9.49,0,0,0,3,.78,4.35,4.35,0,0,1,2.3.84c-2.72.69-2.23.29-2.37,2.49-.3-2.26-1.76-2.43-3.31-2.46s-3.19,0-4-1.77l2.7-5.25c-1.59-2.28-3.92-2.46-6.39-2.62s-5.2-.1-7.79-2l1.46,1.71c-1.66,1.87-3.63-1.2-5.87-1,.87-1.79-.06-2.89-.46-4.34-.39,1.43-4.27-1.74-6.08,1.89l-1.83-3.32c-4.52-2.59-7.09,3.76-11.43,1.85,1.93-1.7.16-3.63,3.69-4.26-1.56-.44-2.88-1.18-3.24.14-.63-1.46-5,1.59-6-.58-.85.7-1.49,2.67-3.19,2.13a1.49,1.49,0,0,1,.2-1c-.21,1-3,.8-1.89,3.22-1.79-3.42-5.21-4-8.55-4.2a25.6,25.6,0,0,1-4.79-.6,6,6,0,0,1-3.73-2.46c-3.56.27-7.82.87-11,.88.21-.59,0-1,.63-.76-4.44-1.83-2.68,5.69-7.6,3.71-1.33-1.54-.7-2,.08-2.22s1.68-.14.86-.73c-.22-1.62-.72-2.37-1.4-2.64a3.87,3.87,0,0,0-2.49.33c-1.84.69-3.89,1.76-5.72,0l.76-.46c-2.77-2-5.91,3.06-10,3.1a1.55,1.55,0,0,0-.1-1c-2.38,3.63-7.43,5.42-11.15,7,.8-2.71,1.55-1.61.41-4-1.69.65,1.15,4-2.18,5.29-1.35-1.17-4.07-1.92-4.94-4.55,1.11-.27,2.21-.51,3.31-.76-2.34-3.21-4.31.91-6.22.69l-.09-1.57a8.7,8.7,0,0,0-1.7.71,7.73,7.73,0,0,0-1.31.9,16.2,16.2,0,0,0-1.95,2,17.06,17.06,0,0,1-1.92,2,10.13,10.13,0,0,1-3.1,1.58l1,.9c-.75,2.37-1.53,2.06-2.38,1.7s-1.76-.85-2.58,1.07l-2.47-3.21c-1.55,1.71-4.79,6.53-7.49,8.9.32-3.55,3.41-6.85,5.15-9.58a19.75,19.75,0,0,0-3.8,2.29c-1.28,1-2.33,2.24-2.32,3.34.53-.71,1-2.05,2-1.89a12.22,12.22,0,0,1-6.13,8.69c-1.67-3.46-4.15-2.55-6.85-1.14s-5.59,3.28-8.46,1.64c-2.1,3.15-5.09,4.89-8.34,6.53a54.49,54.49,0,0,0-5.26,2.78,27.37,27.37,0,0,0-2.75,1.91,22,22,0,0,0-2.48,2.24c6.36,2.2-1.77,1.9,2.94,5.9-1.09,1.64-1.68,2.09-2.08,1.94-2.21.55-4.44,1.15-6.65,1.79-2.26-.15.24-2.27-.89-3.07-3.24,2.89-3.15-.39-6.26.69,2,1,1.37,3.18-.81,4.49l4.35-.76c-.7,3.3-2.47,3.42-4.27,3.58s-3.64.34-4.21,3.63l-.33-2.66c-1.06,3.07-6.91,8.62-4.78,13.88-.87,0-2.6-.52-2.17-1.8a16.89,16.89,0,0,0-2.95,4.52c-.41.85-.75,1.66-1.16,2.62l-1.4,3.19c-1.72,4.2-2.9,8-5.64,10l-1.07-1.21c-.26,1.56,1.36,3.53-.72,4.58-.52-.33-1.12-1.15-1.48-.56a19.09,19.09,0,0,1,.3,2.84,4.29,4.29,0,0,1-.89,3.22l-1-2.14c-2.34,3.23-2.25,6.38-1.72,9.35s1.63,5.83,1.44,8.85c-4.28-1.07-7,4.28-8.15,7l-.59-.21a24.64,24.64,0,0,0,.1,11.51c.74,3.62,1.9,7.11,2.46,11-2.56,2.17-3.31,6.2-3.69,10.58s-.38,9.13-1.64,13c.78-1.19,3.42.14,3.9,1.47-.86,1.81,3.21,4.79-.83,4.67l.05-.64c-3.91,1.5-2.69,5.19-2.58,8.1l5.3.09a9.31,9.31,0,0,0-2.35,6.54,26.81,26.81,0,0,0,1.49,7,32.72,32.72,0,0,1,1.88,6.24,5.33,5.33,0,0,1-1.35,5c1.67,1.55,2.36,3.79,4.12,5.21l-2.74.7a44,44,0,0,0,1.37,6.68,37,37,0,0,0,3,7.09l-2.36-.49c.57,1.78,2.94,2.08,5.3,2.27s4.72.28,5.44,1.73l-3.41,2.67a27,27,0,0,1,1.64,4.46c.44,1.56.93,3.08,1.47,4.59a23.84,23.84,0,0,0,.94,2.2,13.5,13.5,0,0,0,1.27,2,10.85,10.85,0,0,0,3.79,3.18c-.58.23-1.73.73-2.4-.06.71,1.3,1.68,4.08,3,6.08s3,3,5.11.95c-1.53,1.09-.72,2.5.94,3.79a36.34,36.34,0,0,0,5.77,3.27L218,375.45c4.57,0,5.34-.48,8.52,1.88.3.93-1.21,2-1.44.65.84,3.27,3.54.14,4.77,3.89-.75.05-1.5.08-2.24.11,1.88,2.53,2.46,1.7,5.14,1.61a3,3,0,0,1,1.39,1.09,7.68,7.68,0,0,1,1.06,1.95,4.93,4.93,0,0,1,0,4.14c1.4-.77,4.08-1.15,5,.61a1.72,1.72,0,0,1-1.78.9,6.88,6.88,0,0,0,2.56,2.54,12.76,12.76,0,0,0,2.81,1.06c1.82.5,3.39.94,4,3.09a2.44,2.44,0,0,0-.49,1.7c-3.32-2.48-5.91-4.74-5.54-4.71-1.6,2,.9,4.54-3.48,5.62,3.47.26,9.67-.4,11.62,2.44a3.1,3.1,0,0,1-.16,1l-.44.05a2.25,2.25,0,0,0,1.93.84,7.11,7.11,0,0,0,1.77,2.16c-.89,2,2.5,3.1,3.8,4.1,1.46-2.41,3-.84,2.62-3.88.1.31-.45.11-1.42-.41a1.69,1.69,0,0,0-.74-.15l.23-.14c-.93-.54-2.13-1.28-3.48-2.15,1.89-.44,3.67-.67,4.3,1.63,1.71-1,3.5-2.05,4.42-2.49-.34,4.5,2.05,8.64,1.2,11,2.51.72,4.84,2,7.9,3.1s5.86,1.28,8.55-.32c1.62.09.81,2.14.95,3.15-1,.07-1.91-.49-2.69,0,3.29.32,8.41,3.43,10.48.28,1.38,1.48.6,2.07.05,2.46s-.82.62,1.72,1.25l-1.06.81a8.87,8.87,0,0,0,6.37,3.47,14.44,14.44,0,0,0,3.47-.11c1.17-.14,2.33-.38,3.5-.64s2.32-.48,3.47-.64a14.11,14.11,0,0,1,3.43-.14,11.38,11.38,0,0,1,7,3.41c-.69-.58-1-.85-1.08-1.49,5.94,2.69,12.58,2.58,19,2.31s12.72-.68,19.09,1.53c3.61.77,3.82-1.58,5.73-3.6l1.08,2.92c1.1-1.29,2.17-2.56,3.21-3.89,2.37-1.59,4.8-.1,7.47,1s5.53,1.89,8.24-1.18l-1.27-1.81c2.4-.09,6.92-2.88,7.13-.54.14-.42.2-2.24,1.36-1.45l.49,1.5c1.63-1.36,3.22-2.81,4.77-4.22,2.29-.14,2.62,1.4,3.16,2.76s1.3,2.6,4.55,1.58a11,11,0,0,0,3.17-4c.81-1.62,1.16-3.11.53-3.43a2.87,2.87,0,0,1-3.32-1.46l1.72-1.56a41.71,41.71,0,0,0-2.11-6.54,7.55,7.55,0,0,0-5.39-4.13c-.72,1.28-1.47,2.54-2.24,3.83l-1.78-1.78c.9-.33,1.76-.72,2.65-1.08-2.23-1.45-2.55.65-3.26,2.23a3.88,3.88,0,0,0-2.12-1.92c-.6,1.76-1.25,3.47-1.93,5.23-.89-1.64.42-3.9-2-4.23-.95,2.43,2.6,3.51.42,5.53-2.19-1.6-2.13-3.4-3.55-1.15a2.2,2.2,0,0,1,.24-2.64c-1.29,1.83-4.23,1.67-4.56,4.28-1.13-1.1-2.52-.62-3.73-.43s-2.23.08-2.55-2.1c-.31,1.15-2.37,3.94-3.94,4.37,1-2.85-.45-2.66-2.18-2.55s-3.74.21-3.71-2.66c-.75,2.45-2.61,3.24-4.7,3.67s-4.42.59-6.25,2c.19-.39.57-1.18.92-1-2.15-.26-2.82-1.71-4.19-2.54-.15,3.95-3.47,4.87-5.32,7.29-2.61-3.82,1.63-4.58.8-8.23.14,3.2-4.51,3.09-3.7,5.76-1.93-2.39-1.7-1.2-2.58-4.48-.57,4.87-1.86.77-3.69,3.63-2.7-2.63-.39-4.58-3.62-3.41a1.52,1.52,0,0,1,.3-2.16A5.36,5.36,0,0,1,329.68,410.47Zm-70.4-21.05,0,0,1.43.81ZM254,385.58a15.65,15.65,0,0,0,2.21,1.78c-.39.92-1.18,1.58-1.69,1.14C255.15,388.2,254.22,386.82,254,385.58Zm.45,24.22c-1.14-.29-1.13-1-.93-1.52a13.69,13.69,0,0,0,1.78.81c.08-.07.2-.14.3-.22A4.89,4.89,0,0,1,254.4,409.8Z" transform="translate(-159.85 -115.11)"/><path class="cls-1" d="M258.09,407.85c.17,0,.31,0,.49.08a5.38,5.38,0,0,0-.18-.89l-.82.52Z" transform="translate(-159.85 -115.11)"/><path class="cls-1" d="M501,266.88l.06-.15a1,1,0,0,1-.39.33A2.26,2.26,0,0,1,501,266.88Z" transform="translate(-159.85 -115.11)"/><polygon class="cls-1" points="52.85 195.58 52.16 195.75 52.89 196.13 52.85 195.58"/><path class="cls-1" d="M489.59,303.53a1.35,1.35,0,0,0-.78.36A1.82,1.82,0,0,0,489.59,303.53Z" transform="translate(-159.85 -115.11)"/><path class="cls-1" d="M485.7,318.4l-1.61,1.72A8.68,8.68,0,0,0,485.7,318.4Z" transform="translate(-159.85 -115.11)"/><path class="cls-1" d="M480.37,328.48a7,7,0,0,0,1,.72h0Z" transform="translate(-159.85 -115.11)"/><path class="cls-1" d="M430.71,163.32a1.3,1.3,0,0,0-.43-.15C429.12,163,429.82,163.26,430.71,163.32Z" transform="translate(-159.85 -115.11)"/><path class="cls-1" d="M471.14,200.53a11.59,11.59,0,0,1-2.07-.94C469.41,200.57,469.73,201.29,471.14,200.53Z" transform="translate(-159.85 -115.11)"/><path class="cls-1" d="M373.7,142.53s0,0,0-.05l-.37-.08Z" transform="translate(-159.85 -115.11)"/><path class="cls-1" d="M467.75,197.27a2.68,2.68,0,0,0,1.32,2.32A3.93,3.93,0,0,0,467.75,197.27Z" transform="translate(-159.85 -115.11)"/><path class="cls-1" d="M454.45,371.88l-.4.23a1.32,1.32,0,0,1,.27.37Z" transform="translate(-159.85 -115.11)"/><path class="cls-1" d="M454.32,372.48c-.05.2-.12.39-.18.58C454.33,372.91,454.48,372.76,454.32,372.48Z" transform="translate(-159.85 -115.11)"/><path class="cls-1" d="M453.75,374.32l.39-1.26A.9.9,0,0,0,453.75,374.32Z" transform="translate(-159.85 -115.11)"/><path class="cls-1" d="M463.67,361.34l-.79-.66A3.07,3.07,0,0,0,463.67,361.34Z" transform="translate(-159.85 -115.11)"/><path class="cls-1" d="M465.74,357a9.14,9.14,0,0,1-1.94,1.31,2.71,2.71,0,0,0-1.55,1.84l.63.53c-.48-.7.48-1.15,1.44-1.66S466.24,357.89,465.74,357Z" transform="translate(-159.85 -115.11)"/><path class="cls-1" d="M486.38,344.24l-2.6,3.41c1.3-.18,3-.39,2.42,1.44C491.46,345.77,483.54,349,486.38,344.24Z" transform="translate(-159.85 -115.11)"/><path class="cls-1" d="M493.54,333.09c-.56,2.47,1.44.64,1.95,1C495.25,332.21,495.17,331.8,493.54,333.09Z" transform="translate(-159.85 -115.11)"/><path class="cls-1" d="M498,236.2l2.5-.62C499.55,234,499.56,235.89,498,236.2Z" transform="translate(-159.85 -115.11)"/><path class="cls-1" d="M479.39,223.8l-.94,2h2.49C480.41,225.07,479.9,224.43,479.39,223.8Z" transform="translate(-159.85 -115.11)"/><path class="cls-1" d="M492,206.87l.67.58c-.72-.81-1.41-1.64-2.16-2.41C491.06,205.63,491.55,206.25,492,206.87Z" transform="translate(-159.85 -115.11)"/><path class="cls-1" d="M359.92,115.21l.21,3.19C361.4,118,362.1,114.5,359.92,115.21Z" transform="translate(-159.85 -115.11)"/><path class="cls-1" d="M289,125.53c-1.29-1.2-3.71-1.37-4.28.58C286.3,125.64,288.32,126.21,289,125.53Z" transform="translate(-159.85 -115.11)"/><polygon class="cls-1" points="25.16 181.79 23.98 180.44 25.1 183.09 25.16 181.79"/><path class="cls-1" d="M425.33,412.72c.75.43,2.61,1,2.41.49l-3-1.49Z" transform="translate(-159.85 -115.11)"/><path class="cls-1" d="M432.11,412.31a20.12,20.12,0,0,0-6.46-3.82c2.66,1.84,1.39,1.41,4.64,3.44.19.54-1.27.27-2.37-.26.72.46-.95.37.91,1.36,2.58.41,2.92-.11,1.28-1.65A8.6,8.6,0,0,1,432.11,412.31Z" transform="translate(-159.85 -115.11)"/><path class="cls-1" d="M454.57,414.11l.17-.44A.72.72,0,0,0,454.57,414.11Z" transform="translate(-159.85 -115.11)"/><path class="cls-1" d="M467.65,434.74c-.18-.1-.49,0-.73.21A.89.89,0,0,0,467.65,434.74Z" transform="translate(-159.85 -115.11)"/><path class="cls-1" d="M467.2,440.26a2.12,2.12,0,0,0,0-.33C467.05,440.18,467,440.36,467.2,440.26Z" transform="translate(-159.85 -115.11)"/><path class="cls-1" d="M454.57,414.11l-.44,1.14C455,414.65,454.57,414.51,454.57,414.11Z" transform="translate(-159.85 -115.11)"/><path class="cls-1" d="M427.91,403.24a2.2,2.2,0,0,0,.52.82,1.78,1.78,0,0,1-.09-.53Z" transform="translate(-159.85 -115.11)"/><path class="cls-1" d="M446,407.09l-.12-.15c-.33.17-.73.4-1.17.67Z" transform="translate(-159.85 -115.11)"/><path class="cls-1" d="M445.88,401.45v0Z" transform="translate(-159.85 -115.11)"/><path class="cls-1" d="M438.51,407.84l.2.39C438.64,408.12,438.6,408,438.51,407.84Z" transform="translate(-159.85 -115.11)"/><path class="cls-1" d="M449.05,412.19a7.77,7.77,0,0,0-.76.66A8.38,8.38,0,0,0,449.05,412.19Z" transform="translate(-159.85 -115.11)"/><path class="cls-1" d="M408.5,440.29l.43-.24C408.66,440.14,408.48,440.23,408.5,440.29Z" transform="translate(-159.85 -115.11)"/><path class="cls-1" d="M416,425.11l.2.05,1.39-.73Z" transform="translate(-159.85 -115.11)"/><path class="cls-1" d="M468.85,448.51s0,0,0-.05C468.5,448.49,468.61,448.54,468.85,448.51Z" transform="translate(-159.85 -115.11)"/><path class="cls-1" d="M483.08,486.39c2.33,1.24,1.35,3.2,4.16,4.36C486.39,490,484.93,486.87,483.08,486.39Z" transform="translate(-159.85 -115.11)"/><path class="cls-1" d="M428.36,403.21a.86.86,0,0,1,.2-.36C428.37,403,428.31,403.07,428.36,403.21Z" transform="translate(-159.85 -115.11)"/><path class="cls-1" d="M487.24,490.75h0l.28.1Z" transform="translate(-159.85 -115.11)"/><path class="cls-1" d="M480.67,461.58a9.09,9.09,0,0,0,.88-.88A5.89,5.89,0,0,0,480.67,461.58Z" transform="translate(-159.85 -115.11)"/><path class="cls-1" d="M476.08,448.71l-.1.48A.67.67,0,0,0,476.08,448.71Z" transform="translate(-159.85 -115.11)"/><path class="cls-1" d="M487.9,464.66c-.07.27-.34.55.1.52a2.38,2.38,0,0,0,.23-.27C487.87,465.07,487.66,465.09,487.9,464.66Z" transform="translate(-159.85 -115.11)"/><path class="cls-1" d="M492.12,470.32c.15-.16.25-.3.38-.45l-.25-.08Z" transform="translate(-159.85 -115.11)"/><path class="cls-1" d="M420.72,458.49a25.2,25.2,0,0,1,2-1.59C421.06,458,419.91,457.5,420.72,458.49Z" transform="translate(-159.85 -115.11)"/><path class="cls-1" d="M429.25,404.07c-.57-.42-.83-.67-.89-.86a.85.85,0,0,0,0,.32A3.88,3.88,0,0,0,429.25,404.07Z" transform="translate(-159.85 -115.11)"/><path class="cls-1" d="M505.87,451.66l.33,1.15A1.68,1.68,0,0,0,505.87,451.66Z" transform="translate(-159.85 -115.11)"/><path class="cls-1" d="M449.65,501.2h-.43C449.23,501.31,449.35,501.33,449.65,501.2Z" transform="translate(-159.85 -115.11)"/><path class="cls-1" d="M508.52,455.23a6.67,6.67,0,0,0-1.18,1.67,4.47,4.47,0,0,0,.66-.33Z" transform="translate(-159.85 -115.11)"/><path class="cls-1" d="M422.73,456.88l0,0Z" transform="translate(-159.85 -115.11)"/><path class="cls-1" d="M413.13,453.85c.49,1,3.37-1.4,5.31-2.28,1.56.58-2,1.9-3.43,3.26,1.27.19,4.5-1,4.68-.43a4.16,4.16,0,0,1-1.35.84c3-.78,1.44,2.11,5.11,1.05a5.2,5.2,0,0,1-.72.59,48.88,48.88,0,0,1,4.26-2.77c.3.39,2.45-.45.49,1-.1-.29-.94.19-1.66.47l1.16-.12c-2.72,2.2-1.39,0-3.58,1.37,1.48.27,4.54-.26,4.1.9-2.81,1.92-1.91-.91-3.95,1.53l.49-1.68c-4.1,3.56-.06-.8-4.51,2.89,0,1.85,2.39.58,2.36,2.42,1.79-.69,2.32-1.56,4.1-2.26,4,.07-6.34,6-1.63,5,2.14-.85,5.86-3,4.55-.82l-3.46,1.72c.49,1.48,5.13-2.22,3.78.49-1.42.57-1.7-.32-2,.12-2,2.48,2.23-.56,2.65.1l-2.79,2c1.31,1.07,4.34,1.22,5.82,2.36a6.42,6.42,0,0,0-2.61,1.71c2.63,1,2.27,4.22,1.78,7.15l2.9-.93c.08.17-.91,1-1.5,1.17-.46,1.32,1.58-1,2.76-1.3.44.28-1,1.46-1.95,1.7,2.9-.14,6.8.51,5.07,3.57l-.89.24c-.3,1.68,5.75-2.26,4.12.21l-.55.11c.44,2.9,4.3,3.76,1.84,7.94,3.67-2.12,0,3.23,4.87,0-1.51,2.92-2.62,3.18-3,6,.11.62,3.48-1.45,4.39-1.24l-2.49,1.81,3.18-1.12-2.7,2.57,1,.08c0-.33.79-1.27,1.54-1.76,1.72,0-.26,3.29-1.53,4.24l3.55.43a5.7,5.7,0,0,1-2.45.82c1.66-.41,1,.12.38.66a3.19,3.19,0,0,0-.72.69c0,.09,0,.11.16.16a2.5,2.5,0,0,0,.91.1c.39-.65,1.54-1,2.06-1.36-.92,1.92.59,3.94,2.16,4.7l-1.66,1.32a14.77,14.77,0,0,0,3.33,3.88c.63.57,1.27,1.12,1.88,1.71l.45.45a1.86,1.86,0,0,0,.46.4,7.36,7.36,0,0,1,.92.66c-.4-1.67,1.67-5.13,2.38-5l-1.25,3.45c1.3-1.66-.06-1.78,1.83-3.53.54,1-1.05,4.17-2,4.82l1.51-.28a19,19,0,0,1-1.36,2.54c.64-.84.77.36,1.06,1.4s.73,1.94,1.62.38l-.25,1c1.57,1.18,2.73,1.75,3.81,1.63a10.67,10.67,0,0,1,2.17.13c.38-2.83,1.18-2,2.05-4.18.8.53,1.65,1.19,2.42,1.66a2.36,2.36,0,0,0,2.44.33c1.08-2,.13-2.75.46-4.83.33,2.8,2.06,1.69,1.42,4.19a10.47,10.47,0,0,0,2.44-2.19,17.33,17.33,0,0,0,2.29-4.38c-.65-.85-1.08-1.09-1.23-2.15.26-.81,1.33.23,1.74,1.55l0,.39c.34-1.68,1-2.37,2-2.69a14.19,14.19,0,0,1,3.45-.37,7.85,7.85,0,0,0,3.55-.86,2.53,2.53,0,0,0,1.13-3.06.66.66,0,0,1,.09.28c-.13-1.16-.33-2.27-.49-3.41,1-.34.95,1.76,2.56,2.41-1.45-4.58,2.88-2,2.16-5.27,6.3,4.4,3.14-3.85,7.87-1.73l-1.33-1.19c-.88-1.59,1.13.31,1.68.35-1-.95-1.5-.77-2-1.67a4.72,4.72,0,0,1,1-1.76l.18-.19.31-.3c.2-.19.41-.38.63-.56.44-.37.89-.72,1.38-1.06a66.43,66.43,0,0,1,6.77-4,19.64,19.64,0,0,0,7.11-5.88c.68-1.12-1.65-1.86-3.37-2.51a4.31,4.31,0,0,1-1.82-1c-.21-.35.14-.7,1.3-1.33,1.06.38,2.11.78,3.16,1.2a22.17,22.17,0,0,1-1.57-3.85c-.36-1.13-.6-2.18-.91-3.32a10.82,10.82,0,0,0-1.5-3.43,8.81,8.81,0,0,0-3.57-2.9c.94,0,1.95-.32,2.25.11.88-.84.21-1.78-.85-2.34a4.19,4.19,0,0,0-3.42-.32c-.28-.75,1.52-.92,2.11-1.8.28-.8-.87-1.07-1.82-1.27s-1.74-.38-.92-1.28c.26-.3.85-.16,1.14-.08-.73,0-1.2-.77-1.73-1.27a.59.59,0,0,0-.72-.21,3,3,0,0,0-1.12.82c.38-1.71-2.29-1-1.52-2.73-2.84,1.37,0-2.46-3.6,0,3.68-2.63,1.74-3.78-.4-3.09,1.24-.62.77-1.35,2.45-2.25-.54-.62-1.66-.73-3.44.78,3.44-4.45-5.32.15-.26-4.68a25.6,25.6,0,0,1-8.24-2.48c3.66-2.62,1.81,1.69,5.55-1.21-2.73-.57-6.56.77-6.92-1.54.18-.8,1.75-.92,2.48-1.23-2.74-.57-2.08-3.48-5.16-3.51a2.85,2.85,0,0,1,1.22-.41c-.33-.21,0-1.08-1.6.18l.66,0c-2,2.25-5.85,2.54-7.15,3.43,5.08-3,.09-2.35,6.64-6a5.18,5.18,0,0,0-2.48,1.24c.1-.53.68-1.1,2.15-1.74-1.68-.38-3.15,1.29-3.82.31a24.12,24.12,0,0,1,2.26-1.22c-1.91.67-3.83,1.34-3.75,0,.51-.31,1.07-.87,1.24-.62-1.27-1.2-5.89.72-5.52-1.91,3.8-2.13.76-1.37,3.69-3.67l-1.5-.16-1.21,1.41c-.48-.75-3.13.24-2.6-1.1l1.63-.39-1.57-.91-.57,1.6c-2.08.42-3.73,2.89-3.61,1.32.45,0-.49-.74,1-2.42h0c-1.22.36-2.49.74-2.14-.34.85-.85,3.39-2.35,4-2.91-2.76,1.51-1.93-1.16-4.93.38a14.36,14.36,0,0,0,2.6-1.77l-2.25,1.22c.4-.81.68-1.09,2-2-.37-1.27-3.57,3.14-2.81.74.23,0,.51-.3,1-.34,0-1.82-3-1.33-2.81-3.16,2.78-2.57,1.45.4,3.72-1.86-1.71-1.16-6-.57-6.45-2.61l-.13.53c-4.41,3,1.27-2.7-1.31-2a8.93,8.93,0,0,0,2-1.2c-.09-1.55-2.63-1.36-5.14-1.94l1.24-.62c.52-1.34-.64-2-.63-3.06-1.24.61-1.35.1-2.76,1.51,4.7-6.67-6.24-1.42-2.4-7.09.17.21,1.34-.19,1.22-.37l-2.16-.79c-1.77,1.5-1,1-2.18,2.43-1.24.62-2.42.82-2.7.44,1.74-.22,3-2.22,3.78-3.29-.53.47-1.23.84-1.79,1.29,2.66-3.3-3.8,2.66-2.48-.14l1-.7c-.86-.08-2.39.6-2.53,0,1.71-2.08,1.33-.42,3-1.85-.41-.34-1.7.16-2.64.54s-1.54.63-1.2-.74c.79-.39,1.33,0,2.15-.23.64-1.53.65-2.27.51-2.68s-.47-.55-.91-1.08l.08.12a9,9,0,0,0-2.72-2.52,9,9,0,0,1,.72,1.06,21.77,21.77,0,0,1-2.3,2.81,2.34,2.34,0,0,1-1.42.63,2.21,2.21,0,0,0-1.31.47,2.32,2.32,0,0,0-.38,2.19c-.19-1.12-.22-1.88-.29-2.37a1.64,1.64,0,0,0-.34-.92,3.83,3.83,0,0,1-1.44-1.86c-1-.46-2.41-.69-2.6-1.58.08,1.4-.53,1.25-1.18,1.31a.8.8,0,0,0-.75.37,1,1,0,0,0,0,.6,5.91,5.91,0,0,0,.37,1c-.68-.7-.67.47-2.18-1.46-.25,1.25,1.32,1.09,2.07,2.07.56,1.73-.72,1.54-2,1.64s-2.56.44-1.52,2.74c.29,2.6,2.72,4.85,3.22,6.95a4.52,4.52,0,0,1-1.91-1.38,6.32,6.32,0,0,1-.74-1c-1.66-.15-1.84.58-1.33,1.85a5.91,5.91,0,0,0-2.38-1.21c-.15.72,2.78,2.24,1.11,2.22a25.2,25.2,0,0,1-3-2.59c.32,1.18,1.51,2.77,1.91,3.88-1.59-.61-2-1.66-2.85-2.47A5,5,0,0,0,430,409.8l1.11-.07c0,.33-2.15-.88-2.47-1.33-1.52-1.67,1.35-.57,2.23-.14l.29.78c2.67,1.08,2.68.54,2.2-.42s-1.5-2.36-1.06-2.76c1.1.87,2.2,1.73,3.31,2.57-.8-.89-1.59-1.82-2.34-2.76,1,.39,3.05,1.56,3.3,2.3,2.11.55-.88-1.36,1.36-.57a1.25,1.25,0,0,1,.58.44l-.62-1.27c.63.62,2.45,1.63,1.73,1.6,1.3.22.95-.57.63-1.3s-.57-1.33.79-.5l.13.23a2.89,2.89,0,0,0-1.37-2.26,9.36,9.36,0,0,1-2.72-3.17c2.09,1.43,4.15,2.91,6.15,4.44l-2.11-2.21c.2-.06.6-.14,1.43.76-1-1.92-1-.85-2.17-2.5,1.29.66,1.48,0,1.81-.36s.79-.53,2.44,1.25c-1.28-2-1.78-.81-2.15-2.64,1.81,1.9,1.8,1.61,1.66,1s-.33-1.62.54-.73c1.16,2.44.26,1.33,1.76,3.23-1.14-2-.72-1.92-.45-1.25a1.63,1.63,0,0,1,.1.25l-.06-.2c0-.16-.07-.21-.09-.33l0-.23,0-.16v-.09h0s0,0,0,0,0,.13.53-.25a4,4,0,0,0-.6,1.6,12.79,12.79,0,0,1-.44,2.06l-.49.36c3-2.18,3.05-.9,4.15-.69a9.38,9.38,0,0,1-3.61,1.92l.46.6a3.35,3.35,0,0,1,2.32-.6l-2.31,1.49c.72.72,3.8-.3,3.11,1.83,2.09-1.47,5.1-5.08,7.29-5-1.08.87-2.95,2.32-3.62,2.37.22,0,1.18-.35.84.2l-2.19.95c-.47,1.08,1.74-.92,1.85-.41-1.59,1.17-.92,1.12-2.22,2-.22,0,.41-.81-.32-.5a4.77,4.77,0,0,1-1.59,2.92c.87-.71,2.13-1.59,2.57-1.43.71.73-1.7,1.7-2.17,2.78,1.25-.63.49.74,2.87-1,.17.25-.91,1.11-1.48,1.68,1.36-.36,1.75,1.73,3.92-.61l.09-.23c.06,0,.08,0,.15,0h0c3.38-.38.78,3.85,2.81,4.46l-.8.59c1.51.14,1.89,1.41,4,.72.18.24-1,1.64-2,2.24,1.05.18,2-.41,1.36,1.46-1.85.4-1.07,1.13-1.49.11-.09,1.32-1.22,2.45,1.59,1.7-2.25,1.22-2.1,2.51-1.21,2.44l1-1.64c.62.21.72.72.83,1.23l-2.82,1.78c-2,4.07,7.74-1.13,3.24,4.17,2.19-.95.64-1.87,3.12-3.1.2,1-3,4.67-2.87,4.91-.7,2.14,4.62-1.93,4.42-.09.85-.84,3.3-2.86,4.8-2.72.21,1-3.3,3.91-4.42,4-.22-.13,0-.44.35-.67a2.15,2.15,0,0,0-2,1.06l1-.61c-.69,1.1.19,2.07-1.56,3a1.93,1.93,0,0,0,1.92-1.71c-.65,2,1.09,1.55.91,3.25.41-.55,1.42-1.53,1.53-1.37-.09,2.36,2.29-.69,3.45,0-1,1.65-3.62,2.37-1.66,2.47-.52,1.35-2.43,2-3.38,2.34,2.51-.44.06,2.61.11,3.39l-1.13.08a.91.91,0,0,1,1,.44l1.7-1.69c-.12.53.05.78-.75,1.36,1.47-.63,3-2.58,5.14-3.27-.68,1.1,1.9.38-.53,2.39,0-1.82-2.44,2-3.6,1.32.45,0,.61.21.49.75a1.37,1.37,0,0,1-.76.37c-1.41,2.82,3.25-1.6,4.06-.38-1.53.91-2.5,2.28-2.05,2.25-.32-.5,2.21-2,3.62-2.37-.54,1.58,1.44.21,1.6.7l.19-.84c1.54-.9,1.63-.39,2.47-.19-1.07.86-1.12.09-1.47.64,2.94-1.28-1.61,3.24.69,2.8-.69,1.1-2.65,2-3.06,2.85,2.53-.46-1.22,2.44,1,2.26,1.71-1.7,1.21-1.4,3.58-2.11l-2.52-.58,3.53-1.05c-.32-.5-1.95-.11-1.83-.64,1.92-.68,1.4-.37,2.82-1.78-2.38,2.78,2.64.05,1.26,2.24l-4.76,3.5c-1.27,2.7,3.93.21,3.83,2.56l.47-1.08c2-1.2.94.71,2.06.62a12.46,12.46,0,0,0-2.81,2.79c1.16-.89.69,1.16,4-1.06l-1.6,2.21c0,1.82,5.52-2,5.83-.46-2,.94-2.72,2.29-4.52,2.44.27.4.23.95,1.34.14-.83,1,2.92-.53,1.67.94.82-.35,2.52-1.53,2.7-1a4.36,4.36,0,0,1-.78.58c.78-.58,1.56-.12,3-1.8-4.07,4.85,2.8,3-.69,7.19a14.83,14.83,0,0,1,1.72.78,1.47,1.47,0,0,0,.34.15l.27.11a2.08,2.08,0,0,1,.44.28c-.53.28-.84.51-.73.32-.56.78.72.13,2-.41s2.69-1,2.11-.06c-2.66,1.77-1.93.3-2.85,1.08-2.94,1.49-2.65,1.51-2,1.5s1.81,0,0,.77l-.45,0c-1,.47-.32.39.71.37s2.37,0,2.31.35c0,0-.66.07-1.11.15a13.32,13.32,0,0,1,7.7,1.58,20.47,20.47,0,0,0-5-.26,17.55,17.55,0,0,0,2.95.18c1.36,0,2.83.11,3.43.58-.84.11-1.64.29-2.7.39a22.44,22.44,0,0,1-4.13-.06,1.17,1.17,0,0,0-.14-.54c-2.25,0-2.21.1-1.75.3s1.33.46.86.51l-1.91-.3c.25.52,4.8,1.5,3.67,2.23l1.4.29c1.91.85,1.16.81.34.68s-1.75-.34-.48.44c-1.42-.45-2.82-.92-4.2-1.4a12.45,12.45,0,0,1,1.9,1.78,3.6,3.6,0,0,1,.94,1.82c-1.39-1.18-2.26-2.11-3.09-2.85a10.75,10.75,0,0,0-1.56-1.22.36.36,0,0,0-.09.42c.1.3.44.78,1.39,1.44-.24-.3-1-.88-.38-.67,2.64,1.76,3.36,3.19,2.62,3.83-3.07-2.35-3.76-2.34-4.29-2.2a2.45,2.45,0,0,1-.41.11,1.11,1.11,0,0,0-.31.07,1.7,1.7,0,0,1-.41.05,4.54,4.54,0,0,1-2.59-1.19c.5,3.48-3.8,2.05-5.21,4.08,4.8,3.64-.39.62,4,4.87-.12.68-.35.76-.66.51l-3.79-1.39c-1.54-1-.56-1.34-1.57-2.28-1.21.54-2.19-1.48-3.91-2.06,1.66,1.44,1.89,2.53.8,2.43l2.69,1.31c1,3.54-4.67-2.6-3.65.92l-1-1.76a1.84,1.84,0,0,1-.26,1l-.27.55-.13.3c0,.09-.12.25-.06.27.24.41.76,1.21,2.12,3.32a16.33,16.33,0,0,1-1.7-2.28c-.36-.16.21,1.11.39,2.37s.07,2.39-.63,1l-.46-1.65c.09.52.71,3.25.15,1.68-.16-.7-.39-1.71-.44-1.78.05.31.18,1.1.23,1.73s0,1.09-.13.63c-.08-.71-.17-1.41-.28-2.09-.38-1-.24.3-.28,2.3a23.43,23.43,0,0,1-.53,5.66c0-3.06-.16-5-.24-6.36s-.13-2.16-.14-2.69l.09-.89c-.06-.3-.17.17-.4.94-.41,1.48-1.34,3.91-2.21,4.66.76-3,.84-3.69.76-4.19s-.31-.78.45-2a18.66,18.66,0,0,1-2.65,2.92c.24-.42-.37.05-.71.21s-.38.06,1.1-1.33l0,.1c2.77-2.91,2-2.2,1.94-2.45-1.41,1.06-2.85,2.07-4.3,3.07,4.9-6.29-5.67-3-.78-8-1.38.35-1.75-.19-3.13.15l2.32-1.62c-.26-1.6-.39-2.39-2-3.48l1.86-.86c-.43-.93-7.41,3.65-8.09,3l3.3-2.65c-1.08-1.42,1-5-3.18-4.27.52-.32,1.56-1,1.86-.84-.38-.75.54-4.26-4.08-.74,3.1-2.14-.72-1.72-2.64-1.59l2.4-1.44c-3.41,1.32-4.23,1.84-5.68,1.45.15-.43,1.72-1.44,1.32-.74.72-1.56-2.58.88-1.95-.84l1.7-.66c-.33-.88-1.08-.29-3.09.43-1.25.14-.38-1.85,1.65-3.35-1.35.74-3.35,1.45-3,.59a4.4,4.4,0,0,1,1.65-.82c.74-2.32-4-.13-2.26-2.53a6.89,6.89,0,0,0,1.3-1.05c.6,1.07,1,2,.8,2,2.15-1.41,2-2.47,5.39-3.76-2.06.41-6.32,1.56-5.83.09.19-.17.37-.34.68-.58l.3-.08c.09-.32-.22-.36-.68-.28.19-.49.35-.82.22-1.09,1.72-1.24.35-1.56.17-2-2.34,1.55-2.31.76-3.94,2.52.13-.17.34-.1.61.11a.6.6,0,0,0,.36,0l-.23.11a7.26,7.26,0,0,1,.83.92c-1.41.45-2.65.75-1.63-.55-1.66.77-3.37,1.53-4.19,1.87,2.93-2.68,4-4.92,6-6.37-2.13-.42-2.76-2.42-7.75-.43-.8,0,1-1.22,1.65-1.79.57-.07.66.22,1.38-.07-1.61,0-1.78-1.88-5-.11.85-1.8,3.21-1.27,1.92-2.21l1.06-.43c3.5-5.53-10.52.85-5.72-5.85a2.86,2.86,0,0,1-.92,1c1-4.86-6.61-5-3.84-10.8.41-1.43-1.69-.35-3.56,0l2.51-1.69-3.57.78c-3-.09,5.15-6,0-5.28L423,430.27c0-.79-2.13-1.35,0-2.38-.36.11-2,.82-1.16.07l1.37-.79L420,427c.36-1.72,5.6-2.84,4.94-4.68-.88-.33-5,.41-5.82,1.15.07.29-.51,1.12-1.89,1.9l-1-.19c-4.15,2.12-8.6,3.93-10.65,6.94l3.06-.35-1.8,1.41-.6-.78c-1.6,1.5.22.91,1.54.63a7.21,7.21,0,0,0-1.94,1.63l4.44-1.15c-1.53,1-3.41,1.29-3.92,2.45,2.06-.53,3.32-2.42,4.93-2.31-1.58,1.51-3.17,2.21-1.27,1.9a4.84,4.84,0,0,1-2.33.94c1.54-.19,1.29,1,3.59.1-2,1.78,1.55,1.36-2.32,3.48,1-.36,3.51-.81,3.93-.44-5.06,1.75.71,1.88-4.33,4.46,4.48-1.73,3.13,1.21,6.05,1-.36.13-1.1.39-.94.17,0,.82-1.12,1.71-1.66,2.57,3.43-1.89,4.76-1.37,7.16-2.08-2.82,2.66-4.25,1.86-7.24,3.93,2.72-1.64,3.51-.28,5.64-1.88a13.41,13.41,0,0,1-3.31,3c4.28-2.38,1,.12,3.91-.93-1.59,2.07-3.82,2.55-2,2.72A4.64,4.64,0,0,1,413.13,453.85ZM433.73,471l-.05,0-.41-.36C433.36,470.75,433.49,470.85,433.73,471Zm1.19,1.75a2.21,2.21,0,0,0-.41-.83c.77-.59,1.66-1.07,1.73-.86C435.63,471.33,435.43,472.05,434.92,472.76Zm13.95-14.3c.51.06.11.45-.35.8a2,2,0,0,0-.59-.3l-.31.16A13.21,13.21,0,0,1,448.87,458.46Z" transform="translate(-159.85 -115.11)"/><path class="cls-1" d="M445.45,460c-.08,0-.19,0-.24,0-.18.19-.32.36-.43.5l.8-.37Z" transform="translate(-159.85 -115.11)"/><path class="cls-1" d="M454.76,413.6l0,.07a1.57,1.57,0,0,1,.26-.31Z" transform="translate(-159.85 -115.11)"/><polygon class="cls-1" points="287.28 384.96 287.86 384.54 287.25 384.76 287.28 384.96"/><path class="cls-1" d="M455.61,398.57a2.52,2.52,0,0,0,.49-.55A3.58,3.58,0,0,0,455.61,398.57Z" transform="translate(-159.85 -115.11)"/><path class="cls-1" d="M450.71,392.94a7.62,7.62,0,0,0-1.2-1.64C450.1,392.12,450.44,392.61,450.71,392.94Z" transform="translate(-159.85 -115.11)"/><path class="cls-1" d="M440.94,391.39a6.64,6.64,0,0,0,.37,1.16h0Z" transform="translate(-159.85 -115.11)"/><path class="cls-1" d="M491,437.28a.27.27,0,0,0,.19,0C491.86,437.28,491.54,437.21,491,437.28Z" transform="translate(-159.85 -115.11)"/><path class="cls-1" d="M474.92,426.62a8.26,8.26,0,0,1,1.41-.32C476.31,425.91,476.21,425.68,474.92,426.62Z" transform="translate(-159.85 -115.11)"/><path class="cls-1" d="M505.83,451.53l0,0s0,.07.08.1Z" transform="translate(-159.85 -115.11)"/><path class="cls-1" d="M476.8,427c.26-.6,0-.74-.47-.71C476.34,426.62,476.3,427.05,476.8,427Z" transform="translate(-159.85 -115.11)"/><path class="cls-1" d="M425.63,406.75l-.2.15a3.1,3.1,0,0,1,.39.23Z" transform="translate(-159.85 -115.11)"/><path class="cls-1" d="M425.82,407.13l.18.37C426.06,407.4,426.08,407.3,425.82,407.13Z" transform="translate(-159.85 -115.11)"/><path class="cls-1" d="M426.41,408.27l-.41-.77C425.92,407.66,425.74,407.82,426.41,408.27Z" transform="translate(-159.85 -115.11)"/><path class="cls-1" d="M429.88,402.12l-.8-.63A6.15,6.15,0,0,0,429.88,402.12Z" transform="translate(-159.85 -115.11)"/><path class="cls-1" d="M430.73,400.44c-.46.2-2.44-.36-2.29.54l.64.51C428,400.36,431.86,401.77,430.73,400.44Z" transform="translate(-159.85 -115.11)"/><path class="cls-1" d="M444.52,403.86c-.45.06-.91.12-1.37.2.91.62,2.09,1.5,1.94,2C448.29,407.49,443.18,404.54,444.52,403.86Z" transform="translate(-159.85 -115.11)"/><path class="cls-1" d="M446.14,402.55c.43,1.07,0,0,0,.05C446,402,445.93,401.9,446.14,402.55Z" transform="translate(-159.85 -115.11)"/><path class="cls-1" d="M458.36,422.2l-2.09,1.47C456.88,423.88,457.07,423.08,458.36,422.2Z" transform="translate(-159.85 -115.11)"/><polygon class="cls-1" points="312.43 303.65 313.4 302.28 311.37 303.48 312.43 303.65"/><polygon class="cls-1" points="299.76 317.14 299.33 317.17 300.61 317.34 299.76 317.14"/><path class="cls-1" d="M489.38,470.79l2.43-2C491.14,468.83,488.26,470.88,489.38,470.79Z" transform="translate(-159.85 -115.11)"/><path class="cls-1" d="M496.46,479.27c-1.86-.38-3.09-.59-1.56.08C495.28,479.28,496.81,479.5,496.46,479.27Z" transform="translate(-159.85 -115.11)"/><polygon class="cls-1" points="311 374.62 312.1 374.33 310.93 374.22 311 374.62"/><path class="cls-1" d="M161.76,405.68a12.36,12.36,0,0,0,2.3.78L161,405.25Z" transform="translate(-159.85 -115.11)"/><path class="cls-1" d="M167.7,407.3c-1.47-.64-4.08-1.72-6.95-2.72,2.95,1.19,1.7.75,5.21,2.16.34.21-1-.24-2.18-.67.79.32-.72-.14,1.21.62,2.44.8,2.58.71.64-.16C166.33,406.76,167.13,407.09,167.7,407.3Z" transform="translate(-159.85 -115.11)"/><path class="cls-1" d="M175.24,401.48l-.39-.08A1.69,1.69,0,0,0,175.24,401.48Z" transform="translate(-159.85 -115.11)"/><path class="cls-1" d="M178.54,397.25a2.71,2.71,0,0,0,.66.27A3.47,3.47,0,0,0,178.54,397.25Z" transform="translate(-159.85 -115.11)"/><path class="cls-1" d="M182.28,397.51l-.23,0C182.35,397.56,182.52,397.6,182.28,397.51Z" transform="translate(-159.85 -115.11)"/><path class="cls-1" d="M175.24,401.48l1,.21C175.25,401.33,175.49,401.49,175.24,401.48Z" transform="translate(-159.85 -115.11)"/><path class="cls-1" d="M160.58,403.53c.14.08.42.2.79.36l-.31-.18Z" transform="translate(-159.85 -115.11)"/><path class="cls-1" d="M177.06,404.45v.05l1.26.47Z" transform="translate(-159.85 -115.11)"/><path class="cls-1" d="M177,406.24c.13,0-2.52-.95-3.67-1.37a18.22,18.22,0,0,1,1.79.72Z" transform="translate(-159.85 -115.11)"/><path class="cls-1" d="M171.4,407.1l.35.17Z" transform="translate(-159.85 -115.11)"/><path class="cls-1" d="M178,403.49l1,.31Z" transform="translate(-159.85 -115.11)"/><path class="cls-1" d="M192,356.14l.24.44A4.83,4.83,0,0,0,192,356.14Z" transform="translate(-159.85 -115.11)"/><path class="cls-1" d="M200.48,367.33l.05.14.77,1.38Z" transform="translate(-159.85 -115.11)"/><path class="cls-1" d="M186.2,397h0C186.44,397.14,186.4,397.1,186.2,397Z" transform="translate(-159.85 -115.11)"/><path class="cls-1" d="M187.1,387c-2.11-1.52-2.56-2.14-4.93-3.81C183.07,383.91,185.72,386.05,187.1,387Z" transform="translate(-159.85 -115.11)"/><path class="cls-1" d="M160.94,403.61s0-.06,0-.07S160.84,403.56,160.94,403.61Z" transform="translate(-159.85 -115.11)"/><path class="cls-1" d="M182.17,383.21l0,0-.22-.15Z" transform="translate(-159.85 -115.11)"/><path class="cls-1" d="M185.64,393l-1.19-.3C184.73,392.73,185.07,392.82,185.64,393Z" transform="translate(-159.85 -115.11)"/><path class="cls-1" d="M181,394.47l.38,0A1.07,1.07,0,0,0,181,394.47Z" transform="translate(-159.85 -115.11)"/><path class="cls-1" d="M182.22,390.51c.21,0,.59.11.24,0l-.33-.08C182.49,390.52,182.66,390.59,182.22,390.51Z" transform="translate(-159.85 -115.11)"/><path class="cls-1" d="M182.59,389.12,182,389l.13.08Z" transform="translate(-159.85 -115.11)"/><path class="cls-1" d="M189,359.33l1.25,2.19C189.28,359.78,189.12,359.05,189,359.33Z" transform="translate(-159.85 -115.11)"/><path class="cls-1" d="M162.06,404.07a9.78,9.78,0,0,1-1.12-.46.69.69,0,0,0,.12.1Z" transform="translate(-159.85 -115.11)"/><path class="cls-1" d="M160.9,384.41l.46-.1C161.08,384.29,160.92,384.33,160.9,384.41Z" transform="translate(-159.85 -115.11)"/><path class="cls-1" d="M180.41,364.23l-.11-.32C180.25,363.86,180.27,363.94,180.41,364.23Z" transform="translate(-159.85 -115.11)"/><path class="cls-1" d="M161.14,383.55c1,.23,1.53.35,1.9.41l-.69-.22Z" transform="translate(-159.85 -115.11)"/><path class="cls-1" d="M190.27,361.55l0,0Z" transform="translate(-159.85 -115.11)"/><path class="cls-1" d="M188.32,355c-.21,0,1.66,3.22,2.64,5.1.28,1-1.41-2.33-2.39-4,.34.93,1.86,4,1.69,3.89-.3-.53-.43-.71-.77-1.39,1.26,2.66-.35.36,1.24,3.69l-.46-.79c.91,1.61,1.81,3.26,2.44,4.44-.05.1.95,2.14-.23,0a10.32,10.32,0,0,0-.7-1.5l.41,1c-1.73-3-.46-1.12-1.68-3.38.37,1.08,1.54,3.72.94,2.93-1.64-3-.24-1.17-1.85-3.74l.82,1c-2.7-4.64.3.26-2.57-4.71-.72-.72.54,1.68-.19.95.83,1.69,1.34,2.45,2.17,4.14,1.23,3.19-4.32-7.37-2.46-3.24,1,2,3,5.84,1.73,3.94L187.36,360c-.43-.2,2.44,4.95,1,2.81-.66-1.36-.4-1.23-.65-1.61-1.59-2.59.9,2,.76,2.06l-1.62-3c0,.61.83,2.94.82,3.65-.46-.91-.9-1.87-1.45-2.76.41,1.7-1,.06-2.29-1.55l1.21,2.68a12.72,12.72,0,0,1-.89-1.67c-.66-.91.84,1.66,1.3,2.72a11.68,11.68,0,0,1-1.23-2.25c.89,2.33,1.73,5.13,0,2.47l-.35-.8c-.75-1,2.5,5.48,1.06,3.14l-.19-.48c-1-.9-.33,1.75-2.68-2,1.84,3.81-1.3-1.45,1.32,3.83a53.07,53.07,0,0,0-3.22-5c-.23-.19,1.5,3.37,1.65,4l-1.39-2.75,1.29,3-1.75-3.25.24.77a17,17,0,0,1,1.11,2c.44,1.34-1.4-1.7-2.12-3.11l.73,2.56a24.18,24.18,0,0,1-1-2.27c1.17,2.93-1.5-2.88-.42-.19.34.61.81,1.64,1.08,2.2-.95-1.61-1.2-1.5-1-.7l-.93-1.91c-.3-.15-.31.14-.42.55s-.28.92-.59,1.06a20.26,20.26,0,0,1,2.42,4.41l-1.64-2.82c.88,1.81.76,1,1.75,3.25a21.09,21.09,0,0,1-2.34-4.15l.3,1.12c-.5-.84-.69-1.31-1.29-2.4.91,1.81-2.13-2.57-.52.55l-.51-.82c-.69.35-.39,1.47-.82,1.9a41.93,41.93,0,0,1,2.19,3.88c-.83-.55-2.53-2.1-2.82-1.63.57,1.3,1.39,1.95,2.3,3.35-1.6-2-1.86-1.56-2.81-3.14-.21.66-.32.86.5,2.84a16.47,16.47,0,0,1,1.67,1.72c.19.37-.93-.65-1.74-1.58l-.16-.22c1,1.67-.58.55-2.12-.34s-3-1.56-1.25.5l-.17-.21c.51.79,1.05,1.59,1.6,2.35-.54-.07-1.32-1.41-2.66-2.29,1.35,1.7,1.05,1.78.62,1.79s-1-.1-.05,1c-3.13-2.13-3.31-1.63-3.19-1s.57,1.53-1.64.51l1.52.94c1.37,1.1-1-.38-1.39-.48a19.09,19.09,0,0,1,2.22,1.32c.56,1.19-.29,1.45-1.59,1.62a15.79,15.79,0,0,0-4.07.7c-.66.42,8.39,3.92,4.24,2.91l-3-1.42c1.66,1.3,1.48,1.8,1.2,2.31s-.56.87.94,1.74a10.35,10.35,0,0,1-1.63-.63c-2.35-.53-.29.58,1.59,1.12-.25.06-1.71-.47-2.68-.67-1.41-.23,2.82,1.27.51.66a5,5,0,0,1-.91-.32c1.09.4-.39.3,2.29,1-1.33-.14,1.07.76-.56.49,3,1-1.54,0,2.66,1.2-4.35-1.24-3.61-.61-1.61.11-1.3-.42-1.39-.27-3.2-.84,0,.17.78.54,3,1.15-5.29-1.2,4,1.77-2.69,0a29.09,29.09,0,0,1,4.56,2.71c-4.33-1.28-.3-.58-4.85-1.88,1.67.9,5.32,2.21,4.16,2.29a18.22,18.22,0,0,1-2.59-.86c1.67.92-.61.63,1.64,1.67-.4-.12-.83-.29-1.15-.42.12.11-.68,0,1.28.55l-.51-.23c2.88.75,5.87,2.06,7.37,2.53-5.59-1.81-1.52-.08-8.57-2.41.36.15,1.27.49,2.59.88a15.18,15.18,0,0,1-2.65-.78c1,.56,3.11,1.11,3,1.32-1-.29-1.31-.45-2.42-.81,1.82.67,3.64,1.36,2.78,1.3a8.45,8.45,0,0,1-1.29-.45c.19.41,4.75,2.07,2.86,1.87-4.09-1.38-1.4-.3-5-1.39l1,.52,1.75.46c-.11.15,2.44,1.11,1.22.89l-1.42-.59.57.53,1.41.25c1.78.75,4.51,1.4,3.45,1.31a13,13,0,0,1-2.22-.42h0c1.1.44,2.27.91,1.35.75-1.15-.33-3.93-1.28-4.69-1.5,2.94,1,.7.65,3.83,1.77-.74-.27-2.6-.87-3-1l2.4.84a20.76,20.76,0,0,1-2.66-.77c-.52.09,4.53,1.38,2.5,1-.19-.08-.56-.19-.91-.35-1.1-.06,1.36,1,.09.9-3.6-1.09-.8-.51-3.84-1.41.53.57,4,2.17,3.07,2.25l.42.06c5,1.72-2.58-.56-.27.41-.36-.17-2.77-1-2.21-.79-.89,0,1.07.9,2.52,1.81l-1.28-.48c-1.2-.25-.79.15-1.43.1a26.83,26.83,0,0,0,2.93,1.09c-7.5-2,3.63,2.27-2.64.59a4.65,4.65,0,0,0-1.1-.48l1.06.77c2.19.74,1.34.42,3.06.93a9,9,0,0,1,2.22,1,32.5,32.5,0,0,0-4.75-1.57l2.08.73c-3.94-1.17,4.38,1.57,1.67.91l-1.14-.41c.56.3,2,.92,1.67.91-2.53-.84-1.14-.52-3.21-1.25.09.19,4.67,2,2.11,1.22-.68-.31-.66-.41-1.33-.71-3-.9-2.27-.62-2.77-.68h.07l-1.43-.23.83.23c6.5,2.51,1.06.79,5.28,2.57a43.82,43.82,0,0,0-5.19-1.91,26.13,26.13,0,0,1-2.53-.76c2.26.94-1.88-.46,1.43.91a18.69,18.69,0,0,1-2.43-.76,21.72,21.72,0,0,0,2.76,1c3.05,1.36-4-.83.18,1.06,1.66.92,4.73,2.1,6.17,2.94a29.06,29.06,0,0,1-3.31-1.3c-1.4-.34-1.19-.14-.2.38-.78-.32-1.47-.54-2.52-.88.2.2,3.31,1.3,1.91,1-1-.4-2.63-1-3.64-1.46.8.44,2.46,1.2,3.23,1.63-1.6-.55-2.38-1-3.41-1.4A16.85,16.85,0,0,0,165,406l.94.24a26,26,0,0,1-2.63-1c-1.93-.86.95.13,1.87.46l.55.32c5.4,1.87-.72-.71-.34-.79l3.88,1.52-3.17-1.39a35.91,35.91,0,0,1,3.77,1.41c2,.56-1.34-.63.86,0a5.26,5.26,0,0,1,.67.26l-1.11-.57a15.33,15.33,0,0,1,2.17.86c2.35.58-2.78-1.46.21-.48l.24.11c-1.2-.83-2.86-1.08-6.14-2.56l7.15,2.39-2.86-1.07a4.72,4.72,0,0,1,1.5.44c-1.92-.84-1.26-.43-3.08-1.17,2.67.77-1.06-.91,3.53.69a26.62,26.62,0,0,1-3.19-1.17c4.94,1.72-.77-.51,1.54.14a20.7,20.7,0,0,0,3.45,1.28c-4.26-1.63,1.05,0,.28-.4-3.42-1.22-1.33-.8-2.39-1.42a17.25,17.25,0,0,0,3.34.46l.58.21c-3.45-1.25-2.72-1.24-3.39-1.64,2.08.73,2.88,1,3.78,1.45l0-.15a12.86,12.86,0,0,1-2-.91l2.58.94c-.08-.25-2.92-1.46-1.1-1.11-2.41-.85-6.8-2.13-8.33-2.95,1.31.44,3.55,1.2,4.07,1.46-.17-.09-1.06-.46-.49-.31l2.17.86c1,.22-1.82-.69-1.59-.71,1.87.64,1.36.39,2.84.91.17.09-.8-.18-.08.1a17.69,17.69,0,0,1,2.95.71,22.9,22.9,0,0,1-2.74-1c-.06-.24,2.27.7,3.27.92a14.93,14.93,0,0,0-2.68-1.12s1.34.38,2.1.61c-1.19-.52-.19-.6-3.2-1.49l-.2,0-.12-.06h0c-2.67-1.27,1.82-.15.73-.89l.94.31c-1-.55-.48-.65-2.45-1.46a21,21,0,0,1,2.86.83c-.65-.39-1.7-.75-.08-.46,1.58.69,1.46.42,1.15.55.87.07,2.39.51-.11-.54,2.38.86,3.08.84,2.39.51l-1.76-.42c-.32-.22-.08-.25.16-.28l3.14,1.09c4,.83-6.31-2.86.24-1.1-2.18-.82-1.63-.28-4.19-1.21a21.61,21.61,0,0,1,2.74.58l1.65.41a7.5,7.5,0,0,0,.74.17c1.84.29-4.55-1.72-3.27-1.61a39.37,39.37,0,0,1-5.17-1.79,35.69,35.69,0,0,1,5.69,1.68c.08.07-.29,0-.67-.14a9.32,9.32,0,0,0,2.1.74l-1.12-.39a13.17,13.17,0,0,1,3,.62,7.75,7.75,0,0,0-2.46-.72c1.72.27.17-.37,1.35-.28a16.26,16.26,0,0,1-2-.57c1.52.07-2.1-.83-2.52-1.23,1.77.4,4.11,1.33,2.74.63a24.46,24.46,0,0,1,3.92,1.25c-2.11-.91,1.58,0,2,0l.88.41c-.52-.24-.49-.3-.47-.36l-2.29-.62a4.65,4.65,0,0,1,1.39.28c-1.46-.53-3.79-1.1-5.78-1.87,1.18.26-1.15-.66,1.87.22-1.11,0,3,.89,3.45,1.29-.35-.16-.32-.21.11-.16a5.54,5.54,0,0,1,.78.27c2.78.52-3.36-1.17-3.21-1.44a11.6,11.6,0,0,0,2.9.74,26.75,26.75,0,0,1-4.12-1.3c1.38.21-.92-.5-.74-.55l-.66-.08a4.94,4.94,0,0,1-1.93-.86c1.33.38.88.39,1.47.52-2.94-1,3.2.59,1.24-.21,1.18.24,3.2.93,4,1.08-2.14-.88,2.41.44.65-.34a23.11,23.11,0,0,1-3.93-1.26l1.49.88L180.12,393c-.07.11,1.37.68,1,.63a19.9,19.9,0,0,0-3.18-1c3.48.85-1.91-.91.46-.41l5.67,1.66c2.61.45-2.76-1.35-1.23-1.31l-1-.16c-2.24-.7-.25-.32-1.13-.7,1.89.56,2.61.68,3.8,1-1.41-.4.21-.24-3.57-1.35l2.54.55c1.11,0-5.31-1.88-4.58-2,2,.67,3.42.93,4.84,1.54,0-.09.42-.08-.9-.45,1.21.28-2.48-1-.65-.57a18.13,18.13,0,0,1-2.63-.91c.39.1.94.27.94.27a29.86,29.86,0,0,0-3.36-1c6,1.38-.2-.92,5,.27a4.13,4.13,0,0,1-1.21-1c.56.17.95.27.74.25,1.83.28-5.41-1.7-3.37-1.4a25.69,25.69,0,0,1,2.81.88c6.24,1.8-.77-.55,2.91.38l.35.15c2.14.56-2.26-1-1.78-1l.94.3a20.58,20.58,0,0,1-4.9-2.22c2.37,1,1.24.54,3.67,1.42-.32-.2-3.9-1.42-4.53-1.86,1.32.44,2.49.78,5.06,1.81l.11.16c3.35,1.26-.08-.17.52,0l1.45.61c-.44-.31-4.06-1.9-3.73-2l-1.09-.47c-3.52-1.79,2,.84-.57-.55L183,386.1a38.18,38.18,0,0,1-4-2.52c2.59,1.51,3.89,2.34,5.44,3.18.05,0-.2-.29-1.94-1.26.33.21,1.2.7.64.43-2.77-1.52-4.08-2.42-3.95-2.57,3.4,1.93,3.86,2.09,4.13,2.14s.37,0,3,1.58c-1.2-.84-.89-.77-.35-.49s1.33.78,1.18.58c-5-3.63-.12-.14-5.18-3.95-.28-.31-.18-.27.15,0,1,.71,2.08,1.45,3.09,2.2,1.46,1.14,1.07.91,2.18,1.79.42.26,2.11,1.66,3.42,2.72-1.75-1.43-2.5-2.08-1.82-1.54-.75-.62-1.51-1.23-2.27-1.84-2.49-2.28,4.1,3.4,1.61,1.17l1.48,1.33c-.85-.8,0,0-3.55-3.56.53.5,1.77,1.71,2.08,2s-.61-.74-1.26-1.55-1.08-1.44,0-.31l1,1.16c-.28-.34-1.85-2.19-.82-1.05l1.05,1.23c-.34-.4-1.67-2.08-1.06-1.42l1.06,1.34c.68.74,0-.08-.79-1.22a32.92,32.92,0,0,1-2.06-3.08l4,5.3.36.52c.33.44-1.93-3.12-2.54-4.74a13.17,13.17,0,0,0,1.78,2.59,2,2,0,0,1,.3.26,4.72,4.72,0,0,1,.83.91,30.33,30.33,0,0,1-1.66-3.49c.49.75-1.12-2.86.68.75l-.07-.05c1.85,3.5,1.57,2.47,1.76,2.49l-2.34-4.73c3.82,6.67-.22-3.05,3.08,3-.49-1.23-.36-1.27-.86-2.5l1.27,2.53c.59.51.89.76.93,0l.84,1.85c.27.06-3.43-7.42-3.33-7.65l1.95,3.74c.31-.23,2.33,2.91.92-.67a18.72,18.72,0,0,1,.85,1.82c.2,0,1.92,2.24-.78-2.9,1.72,3.36.51.15-.07-1.42l1.25,2.49a34.59,34.59,0,0,1-2.16-5.1c.22.3,1.07,2,.68,1.36.83,1.21-1.08-2.41-.2-1.2l.74,1.62c.27.11-.18-.73-1-2.63-.41-1,.65.46,1.83,2.68-.68-1.37-1.53-3.25-1.1-2.65.46.83.69,1.38.81,1.64,1.16,1.53-1.08-3.09.39-.77.43.82.66,1.22.8,1.46-.26.06-.51,0-.59-.17,1.19,2.28,1.58,2.58,3.08,5.8-.75-1.79-2.44-5.66-1.7-4.68l.44.77.11.27c.16.2.09,0-.08-.43.26.34.44.6.51.61,1,1.86.75.9.89.94-1.31-2.48-1-2.15-2.18-4.14a.69.69,0,0,1,.13.44,2,2,0,0,0,.1.28l-.11-.22a.62.62,0,0,1-.14.28c-.59-1.3-1.08-2.4-.25-1.07l-2-4.08c2,3.4,3.19,5.14,4.36,7.26-.46-1.54.18-1.27-2.14-6-.24-.64.81,1.29,1.23,2a9.22,9.22,0,0,0,.44,1.13c-.48-1.28.23-.72-1.48-4,1,1.36,1.5,3.05,1.48,2.37l.5,1c3.36,4.89-3.61-8.75.6-2.43a9.37,9.37,0,0,1-.69-1.1c2.28,2.56-.13-3.5,3.1.76.71.83-.42-1.24-1.18-2.87l1.52,2.61-1.51-3.15c-1-2.38,4.11,6.19,2.1,1.79l-1-1.75c.31.26-.19-1.27.94.78-.17-.33-1-1.87-.43-1l.78,1.37-1-2.53c.8.86,3.05,5.48,3.56,5.55a45.71,45.71,0,0,0-2.47-5.1,11.18,11.18,0,0,1-1.41-2.15l-.29-.79c-2.28-4.05-4.56-8.24-6.44-10.92l1.21,2.59-1.18-1.93.09-.21c-1.14-1.8-.27-.13.3,1-.6-1-1-1.76-1.3-2.12l2,4c-.92-1.57-1.7-3.19-2.32-4,.93,1.84,2.1,3.5,2.61,4.77-1.13-1.79-1.95-3.31-1.17-1.67a24.39,24.39,0,0,1-1.17-2.2,18.09,18.09,0,0,0,1.2,2.86c-1.37-2.22,0,.77-2.14-3.07a29.56,29.56,0,0,1,1.52,3.32c-2.41-4.7-.48-.08-3.2-5,2.2,4.21.6,2.09,1.66,4.5-.17-.33-.51-1-.38-.81a25.4,25.4,0,0,1-1.55-2.25c1.89,3.43,2.13,4.32,3.2,6.49-2-3.22-2.14-4.08-3.94-7.23,1.55,2.78,1.28,2.92,2.61,5.21-1.24-2-.65-.94-2.27-3.76,2.34,4.3.29.79,1.65,3.47-1.33-2-2.25-4-1.71-2.59A22.73,22.73,0,0,1,188.32,355Zm-.25,9.75,0-.05v-.19C188.06,364.56,188.06,364.62,188.07,364.75Zm-.34.23a.15.15,0,0,0,.21,0,12.85,12.85,0,0,1,.85,1.72A19.46,19.46,0,0,0,187.73,365Zm9.85,16.83c.12.39-.15-.09-.43-.6a.94.94,0,0,0-.05-.35l-.15-.31Z" transform="translate(-159.85 -115.11)"/><path class="cls-1" d="M196,378.49a1.6,1.6,0,0,1-.07-.19l-.33-.54.39.79S196,378.52,196,378.49Z" transform="translate(-159.85 -115.11)"/><path class="cls-1" d="M174.79,401.39h.06l-.38-.11Z" transform="translate(-159.85 -115.11)"/><polygon class="cls-1" points="20.36 247.67 20.68 248.3 20.43 247.73 20.36 247.67"/><path class="cls-1" d="M164.91,400.46c-.24-.08-.48-.16-.69-.21Z" transform="translate(-159.85 -115.11)"/><path class="cls-1" d="M164,401.18l-1-.2A9.55,9.55,0,0,0,164,401.18Z" transform="translate(-159.85 -115.11)"/><path class="cls-1" d="M162.42,401.43l1.13.42h0Z" transform="translate(-159.85 -115.11)"/><path class="cls-1" d="M163,389.12l-.12-.06C162.38,388.84,162.57,388.94,163,389.12Z" transform="translate(-159.85 -115.11)"/><path class="cls-1" d="M168.23,394.45l-1.23-.51C166.77,393.93,166.7,394,168.23,394.45Z" transform="translate(-159.85 -115.11)"/><path class="cls-1" d="M160.84,384.41l0,0s0,0,0,0Z" transform="translate(-159.85 -115.11)"/><path class="cls-1" d="M167.09,393.79c-.55-.11-.45,0-.09.15C167.19,393.94,167.48,394,167.09,393.79Z" transform="translate(-159.85 -115.11)"/><path class="cls-1" d="M160.1,404.07H160l.42.16Z" transform="translate(-159.85 -115.11)"/><path class="cls-1" d="M160.4,404.22l.3.16S160.69,404.34,160.4,404.22Z" transform="translate(-159.85 -115.11)"/><path class="cls-1" d="M161.34,404.7l-.64-.32S160.59,404.41,161.34,404.7Z" transform="translate(-159.85 -115.11)"/><path class="cls-1" d="M161.67,403.58l-1-.36Z" transform="translate(-159.85 -115.11)"/><path class="cls-1" d="M161.49,403.19c-.24,0-2.1-.57-1.54-.26l.76.29C159.31,402.65,163.09,403.84,161.49,403.19Z" transform="translate(-159.85 -115.11)"/><path class="cls-1" d="M173.79,406.26l-.86,0a15.31,15.31,0,0,1,2.64,1C178.73,408,173.26,406.44,173.79,406.26Z" transform="translate(-159.85 -115.11)"/><path class="cls-1" d="M175.55,406a11,11,0,0,0,2.06.74A8.09,8.09,0,0,0,175.55,406Z" transform="translate(-159.85 -115.11)"/><path class="cls-1" d="M177.51,400.33l2.43.82A19.38,19.38,0,0,0,177.51,400.33Z" transform="translate(-159.85 -115.11)"/><polygon class="cls-1" points="5.45 280.03 3.91 279.63 6.12 280.4 5.45 280.03"/><polygon class="cls-1" points="22.99 285.01 23.32 285.17 22.5 284.7 22.99 285.01"/><path class="cls-1" d="M184.91,390l-3-.83C182.4,389.44,185.8,390.41,184.91,390Z" transform="translate(-159.85 -115.11)"/><path class="cls-1" d="M182.7,386.17c1.45.64,2.39,1,1,.33C183.48,386.45,182.33,386,182.7,386.17Z" transform="translate(-159.85 -115.11)"/><polygon class="cls-1" points="30.68 270.75 31.08 271.74 30.82 270.88 30.68 270.75"/><path class="cls-1" d="M552,159.93c-.35-.78-1.26-2.51-1.18-2.12l1.43,3Z" transform="translate(-159.85 -115.11)"/><path class="cls-1" d="M548.57,154.82c.62,1.48,1.77,4.06,3.23,6.73-1.33-2.89-.7-1.72-2.3-5.16-.08-.39.65.86,1.19,2-.36-.77.48.57-.41-1.31-1.29-2.22-1.51-2.22-.71-.25C549.2,156.15,548.84,155.36,548.57,154.82Z" transform="translate(-159.85 -115.11)"/><path class="cls-1" d="M536.42,155.53l.26.31A1.39,1.39,0,0,0,536.42,155.53Z" transform="translate(-159.85 -115.11)"/><path class="cls-1" d="M529.46,157.62a2.33,2.33,0,0,0-.31-.64A2.19,2.19,0,0,0,529.46,157.62Z" transform="translate(-159.85 -115.11)"/><path class="cls-1" d="M526.43,155.23l.19.15C526.42,155.14,526.31,155,526.43,155.23Z" transform="translate(-159.85 -115.11)"/><path class="cls-1" d="M536.42,155.53l-.68-.81C536.27,155.66,536.22,155.37,536.42,155.53Z" transform="translate(-159.85 -115.11)"/><path class="cls-1" d="M550.92,162.6a5.53,5.53,0,0,0-.32-.82q.06.21.09.36Z" transform="translate(-159.85 -115.11)"/><path class="cls-1" d="M537.78,151.67l.05,0-.61-1.2Z" transform="translate(-159.85 -115.11)"/><path class="cls-1" d="M539.62,150.09c-.11-.08,1.21,2.4,1.78,3.49a16.75,16.75,0,0,1-.82-1.75C540.33,151.36,540,150.81,539.62,150.09Z" transform="translate(-159.85 -115.11)"/><path class="cls-1" d="M545.21,152.73l-.12-.37Z" transform="translate(-159.85 -115.11)"/><path class="cls-1" d="M536,152l-.52-.86C535.66,151.43,535.83,151.72,536,152Z" transform="translate(-159.85 -115.11)"/><path class="cls-1" d="M496.13,208.88l-.26-.43A1.87,1.87,0,0,0,496.13,208.88Z" transform="translate(-159.85 -115.11)"/><path class="cls-1" d="M486.63,198.38l-.05-.15-.8-1.36Z" transform="translate(-159.85 -115.11)"/><path class="cls-1" d="M522.46,153.58l0,0C522.37,153.32,522.37,153.39,522.46,153.58Z" transform="translate(-159.85 -115.11)"/><path class="cls-1" d="M507.39,169.25c1.92,1.63,2,2.54,4.22,4.29A50.61,50.61,0,0,0,507.39,169.25Z" transform="translate(-159.85 -115.11)"/><path class="cls-1" d="M550.7,162.3s0,.08-.07.07S550.73,162.41,550.7,162.3Z" transform="translate(-159.85 -115.11)"/><path class="cls-1" d="M511.61,173.54v0l.21.16Z" transform="translate(-159.85 -115.11)"/><path class="cls-1" d="M518.94,158.24c.31.38.56.66.8.93C519.56,159,519.34,158.68,518.94,158.24Z" transform="translate(-159.85 -115.11)"/><path class="cls-1" d="M524.58,159l-.29-.25C524.47,159,524.54,159,524.58,159Z" transform="translate(-159.85 -115.11)"/><path class="cls-1" d="M519.74,162.65c-.18-.13-.43-.42-.25-.08l.23.25C519.5,162.51,519.41,162.34,519.74,162.65Z" transform="translate(-159.85 -115.11)"/><path class="cls-1" d="M518.1,164.06l.4.4,0-.16Z" transform="translate(-159.85 -115.11)"/><path class="cls-1" d="M500.74,204.41c-.47-.64-1-1.36-1.45-2.07C500.4,204,500.53,204.77,500.74,204.41Z" transform="translate(-159.85 -115.11)"/><path class="cls-1" d="M550.19,161.2a8.31,8.31,0,0,1,.51,1.1.46.46,0,0,0,0-.16C550.5,161.76,550.32,161.41,550.19,161.2Z" transform="translate(-159.85 -115.11)"/><path class="cls-1" d="M533.7,179.88l-.46-.15C533.47,179.89,533.63,179.94,533.7,179.88Z" transform="translate(-159.85 -115.11)"/><path class="cls-1" d="M512.9,195.27l.14.31C513.11,195.62,513.08,195.54,512.9,195.27Z" transform="translate(-159.85 -115.11)"/><path class="cls-1" d="M532.93,180.53c-.67-.72-1.08-1.13-1.36-1.39l.44.58Z" transform="translate(-159.85 -115.11)"/><path class="cls-1" d="M499.27,202.32l0,0Z" transform="translate(-159.85 -115.11)"/><path class="cls-1" d="M501,209.11c.31-.1-1.81-3.13-2.88-5-.25-1.08,1.6,2.21,2.72,3.74-.32-.95-2-3.9-1.77-3.87a13.5,13.5,0,0,1,.86,1.33c-1.37-2.61.54-.53-1.21-3.79.19.27.37.52.52.76-1-1.53-2.06-3.11-2.78-4.24.08-.13-1.06-2.1.3-.1a6.83,6.83,0,0,0,.79,1.46l-.45-1c2,2.84.49,1.12,1.88,3.28-.37-1.11-1.67-3.7-.95-3,1.89,2.81.2,1.23,2.09,3.6l-1-.9c3.13,4.35-.38-.2,2.94,4.48.92.57-.52-1.73.4-1.15-.95-1.64-1.56-2.32-2.51-4-1.34-3.18,5.12,6.85,3,2.82-1.15-2-3.49-5.56-2-3.85l2,3.26c.58.07-2.86-4.73-1-2.83.78,1.29.43,1.24.74,1.59,1.93,2.35-1-1.93-.86-2.05l1.94,2.79c.09-.7-.86-3-.79-3.8a22.52,22.52,0,0,0,1.76,2.57c-.42-1.75,1.38-.47,3.07.81l-1.49-2.54a9,9,0,0,1,1.13,1.52c.85.76-1.07-1.53-1.63-2.54,0-.24,1.12,1.27,1.56,2-1.07-2.29-2.12-5.08.1-2.8l.44.76c1,.75-3.22-5.09-1.34-3.07l.25.45c1.39.57.46-2,3.6,1.1-2.47-3.43,1.76,1-1.78-3.69,2.13,2,2.67,3,4.39,4.1.3.11-2.07-3.05-2.29-3.66l1.91,2.41L511,193.53l2.41,2.8-.34-.75a11.91,11.91,0,0,1-1.53-1.68c-.63-1.28,1.93,1.22,2.92,2.44l-1.06-2.48a17.16,17.16,0,0,1,1.37,2.06c-1.68-2.69,2.1,2.47.57,0-.48-.51-1.14-1.44-1.53-1.93,1.32,1.34,1.65,1.07,1.38.27l1.31,1.68c.78.05.25-1.55.74-1.92A20.9,20.9,0,0,1,514,190.2l2.17,2.43c-1.23-1.61-.94-.81-2.37-2.84a21.12,21.12,0,0,1,3.12,3.6l-.52-1c.64.73.93,1.16,1.72,2.11-1.23-1.6,2.52,2.15.35-.61l.65.72c.5-.4,0-1.42.24-1.88a38.92,38.92,0,0,1-2.71-3.56c.86.43,2.64,1.79,2.81,1.31a29,29,0,0,0-2.57-3.14c1.74,1.87,1.91,1.4,3,2.9.1-.66.15-.84-.79-2.8a18.25,18.25,0,0,1-1.71-1.65c-.21-.39.93.6,1.77,1.5l.16.22c-2.13-3.27,6.37,4.21,3.09,0l.16.21-1.51-2.4c.5.12,1.22,1.49,2.48,2.48-2.54-3.5,1.19-.29-.47-2.66,5.6,5.09.59-1.35,4.36,1.7l-1.27-1.24c-1.14-1.33.83.61,1.19.83a23.79,23.79,0,0,1-1.85-1.78c-.68-2.36,3.41.29,5.28.7.6.09-6.21-6.81-2.92-4.06l2.18,2.48c-2.18-3.38,1.18-.9-.55-3.88a10.84,10.84,0,0,1,1.08,1.37c1.72,1.68.49-.29-.81-1.76.23.09,1.2,1.3,1.91,2,1,1-1.74-2.54-.1-.8a6.93,6.93,0,0,1,.58.77c-.69-.93.53-.06-1.35-2.09,1.06.83-.41-1.26.82-.16-1.89-2.45,1.3.85-1.47-2.54,2.89,3.49,2.68,2.51,1.47.75.82,1.1,1,1,2.15,2.51.1-.16-.3-.93-1.78-2.72,3.65,4-2.12-3.86,2.34,1.46a20.89,20.89,0,0,1-1.81-5.08c2.69,3.62-.2.72,2.68,4.48-.75-1.77-2.82-5.06-1.76-4.5a15.56,15.56,0,0,1,1.52,2.28c-.71-1.82,1-.23,0-2.5a10.2,10.2,0,0,1,.62,1.05c0-.17.56.43-.63-1.24l.25.5A74.51,74.51,0,0,1,531,167c3.23,4.9,1.24.94,5.27,7.17a19.06,19.06,0,0,0-1.46-2.31,11.78,11.78,0,0,1,1.6,2.26c-.37-1.1-1.7-2.83-1.43-3,.56.82.73,1.17,1.37,2.15-1-1.67-1.94-3.37-1.25-2.82a6.23,6.23,0,0,1,.71,1.17c.18-.49-2.25-4.71-.8-3.44,2.25,3.68.92,1.09,3,4.2l-.39-1.07-1.08-1.46c.23-.07-1.07-2.46-.24-1.54l.69,1.38v-.83l-1-1.06c-.84-1.74-2.58-4-1.75-3.25.16.36.24-.09,1.53,1.7h0c-.54-1.06-1.1-2.19-.45-1.5.67,1,2.17,3.51,2.62,4.16-1.57-2.69,0-1-1.63-3.91.37.69,1.4,2.35,1.63,2.68l-1.26-2.2a15.51,15.51,0,0,1,1.55,2.29c.53.22-2.59-4-1.18-2.44.09.19.3.51.45.87.89.69-.2-1.78.76-.91,2,3.16.22,1,2,3.6.07-.85-1.43-4.42-.54-3.92l-.29-.31c-2.64-4.6,1.66,2.06.62-.22.14.37,1.42,2.58,1.13,2.06.73.57,0-1.47-.42-3.17l.63,1.21c.79.95.82.34,1.32.77a19.06,19.06,0,0,0-1.45-2.77c4.43,6.41-.9-4.27,2.8,1.06a3.77,3.77,0,0,0,.49,1.1l-.17-1.35c-1.16-2-.74-1.19-1.71-2.71a6.45,6.45,0,0,1-.87-2.3,24.15,24.15,0,0,0,2.51,4.33c-.36-.61-.71-1.31-1.06-1.94,2.22,3.46-2.21-4.09-.54-1.86l.56,1.08c-.17-.62-.83-2.09-.53-1.86,1.34,2.32.47,1.17,1.52,3.1.1-.24-2.06-4.64-.62-2.39.28.69.17.76.44,1.46,1.69,2.65,1.33,1.94,1.7,2.31l0-.06,1,1.09-.49-.71c-3.08-6.25-.13-1.37-2-5.56a33,33,0,0,0,2.54,4.91,18,18,0,0,1,1.42,2.24c-1-2.24,1.15,1.57-.33-1.69a13,13,0,0,1,1.33,2.17,15,15,0,0,0-1.41-2.56c-1.26-3.09,2.59,3.21.88-1.06-.51-1.86-2-4.81-2.37-6.44a20.87,20.87,0,0,1,1.55,3.2c.85,1.17.87.86.53-.22.36.77.73,1.39,1.29,2.34,0-.31-1.55-3.21-.7-2,.47,1,1.23,2.55,1.66,3.55-.24-.88-.91-2.58-1.14-3.46a31.22,31.22,0,0,1,1.52,3.37,12.72,12.72,0,0,0-1.37-4.06l-.57-.79a17.92,17.92,0,0,1,1.27,2.5c.8,2-.67-.7-1.13-1.57l-.16-.62c-2.75-5-.08,1.08-.48.92l-1.81-3.75,1.33,3.2a25.86,25.86,0,0,1-1.82-3.59c-1.14-1.73.52,1.39-.7-.56a5,5,0,0,1-.33-.64l.4,1.19c-.37-.79-1.39-2.58-1-2.11-1.44-1.95.93,3-.66.31l-.09-.24c.21,1.48,1.38,2.73,2.72,6.07l-3.75-6.54,1.39,2.72c-.1-.07-.3-.23-.85-1.32.8,1.94.65,1.16,1.47,3-1.52-2.34,0,1.46-2.33-2.8,1,2.09,1,1.47,1.58,3-2.54-4.57.15.94-1.19-1.07-1.21-2.41-.34-1.26-1.68-3.27,2,4.08-.88-.67-.64.19,1.72,3.2.35,1.53.64,2.74-.57-1.09-1.49-1.46-2.4-2.46l-.28-.53c1.72,3.24,1.11,2.79,1.28,3.57a31.26,31.26,0,0,1-1.81-3.63l-.18.12a9.17,9.17,0,0,1,.85,2.07l-1.29-2.43c-.18.28,1.07,3.11-.15,1.7,1.24,2.24,3.74,6.07,4.25,7.75-.69-1.2-1.86-3.26-2-3.8.06.18.46,1.06.11.58l-1-2.11c-.65-.81.88,1.74.66,1.62-1-1.72-.78-1.18-1.54-2.55-.06-.19.51.65.17-.05A12.21,12.21,0,0,1,536,152a17.58,17.58,0,0,1,1.34,2.59c-.18.27-1.26-2-1.91-2.82.62,1.23-.25.09,1.21,2.65a14.14,14.14,0,0,1-1.2-1.83c.51,1.2-.43.67,1.28,3.31l.14.16,0,.12h0c1.06,2.78-1.71-.95-1.5.38l-.5-.85c.32,1.12-.22.89.69,2.83a15.63,15.63,0,0,1-1.67-2.48c.19.76.74,1.72-.37.5-.69-1.6-.85-1.27-.45-1.21-.69-.58-1.57-1.89-.44.58-1.22-2.22-1.84-2.6-1.57-1.88l1.12,1.44c.06.39-.18.27-.41.16l-1.67-2.87c-2.66-3.12,2.69,6.43-1.29.93,1.11,2.05,1.16,1.21,2.48,3.59a14.69,14.69,0,0,1-1.82-2.14l-1-1.35a4.35,4.35,0,0,0-.49-.59c-1.32-1.35,2.3,4.3,1.28,3.44a29,29,0,0,1,2.79,4.71,25.79,25.79,0,0,1-3.34-4.9c0-.12.23.18.45.52a6.56,6.56,0,0,0-1.13-1.92l.62,1c-.78-.94-1-.63-2-2.31a5.56,5.56,0,0,0,1.45,2.11c-1.24-1.25-.51.25-1.45-.49a12.5,12.5,0,0,1,1.16,1.67c-1.27-.92,1,2,1,2.65-1.18-1.39-2.34-3.64-1.8-2.16a17,17,0,0,1-2.26-3.45c1,2.1-1.38-.87-1.79-1.1l-.38-.9c.22.54.13.57,0,.62l1.43,1.9a3.11,3.11,0,0,1-1-1.05c.78,1.35,2.29,3.22,3.31,5.09-.8-.91.38,1.31-1.45-1.25,1,.62-1.84-2.58-1.8-3.22.15.36.06.4-.26.12a3.75,3.75,0,0,1-.44-.72c-2-2.06,1.86,3,1.45,3.24-1-1.48-2-2.7-1.87-2.34.18-.08,1.77,2.38,2.42,3.58-1-1,.34,1,.12,1l.52.43c1,1.48.73,1.37.89,1.94-.81-1.12-.41-.88-.81-1.33,1.63,2.66-2.29-2.35-1.32-.47-.82-.89-2-2.7-2.54-3.28,1.06,2.08-1.75-1.73-.94,0a15.54,15.54,0,0,1,2.35,3.4l-.51-1.72,1.74,3c.16-.08-.58-1.44-.26-1.18a14.14,14.14,0,0,0,1.9,2.74c-2.3-2.74.86,2-.79.18l-3.51-4.74c-1.94-1.84,1.19,2.9-.15,2l.77.71c1.36,1.91-.08.46.36,1.33a36.71,36.71,0,0,0-2.54-3c.91,1.15-.42.16,2,3.29l-1.8-1.89c-1-.55,3.08,4.72,2.34,4.44a44.08,44.08,0,0,1-3-4.09c-.13.07-.46-.12.4.94-.85-.9,1.37,2.33.08,1,.5.71,1.8,2.32,1.57,2.3-.26-.3-.61-.76-.61-.76a20.63,20.63,0,0,0,2.14,2.79c-4.26-4.47-.61,1.1-4.32-2.69a3.76,3.76,0,0,1,.2,1.72c-.38-.45-.65-.74-.48-.62-1.51-1.12,3.56,4.4,1.9,3.15-2.29-2.23-1-1.44-1.89-2.25-4.37-4.81.2,1-2.55-1.6l-.21-.33c-1.65-1.48,1.24,2.2.66,2.11,0,0-.38-.44-.66-.72a16.62,16.62,0,0,1,2.84,4.63,30.12,30.12,0,0,0-2.63-2.93c.14.38,2.88,3,3.15,3.73-1-.95-2-1.68-4-3.65l.12-.31c-2.56-2.49-.21.35-.74,0l-1.07-1.14c0,.68,2.75,3.52,2.21,3.65l.86.81c2.52,3-1.68-1.42.15.84l-2.81-2.77a45,45,0,0,1,2.54,3.89,58.93,58.93,0,0,1-3.77-4.94c-.14.11-.22.63,1.08,2.08-.21-.32-.83-1.07-.35-.69,2,2.37,2.9,3.64,2.61,3.83-5.35-5.48-2-.75-6.33-4.81,1.58,2.42-1.67,0-1.83.75,4.37,4.06,0,.26,4.32,4.57.17.39.05.36-.24.09l-2.91-2.26c-1.33-1.19-.84-1.06-1.82-2-.56-.11-1.92-1.75-3.21-2.75,1.57,1.52,2.12,2.3,1.4,1.83l2.17,1.83c2,2.63-3.88-3.39-1.94-.78l-1.24-1.47c.62,1-.63.55,2.62,4.24a17.13,17.13,0,0,1-1.95-2c-.9-.15,2.72,4.65.33,2.73l-1-1.12c.22.38,1.8,2.17.67,1.15a15.61,15.61,0,0,0-1.08-1.14c.31.41,1.59,2.09.9,1.54L503.51,172c-1.71-1.09,2.19,3.55,2.54,4.62-3-3.25-4.22-4-4.84-4.44l-.41-.46c-.78,0,1.67,3.37,2.37,5.06-3.39-3.39-2.2-.75-4.34-2.45a26.15,26.15,0,0,1,2.39,3c-.67-.6,1.66,2.6-.89-.53l.09,0c-2.6-3-2.12-2-2.36-2l3.31,4.11c-2.65-2.8-2.48-2-2.24-1.2s.56,1.74-1.69-.88c.71,1.12.57,1.21,1.28,2.34L497,177c-.74-.35-1.09-.52-1,.29l-1.16-1.66c-.3,0,4.69,6.69,4.59,7l-2.6-3.33c-.32.34-2.92-2.39-1,1a15,15,0,0,1-1.12-1.67c-.24,0-2.35-1.83,1.12,2.81-2.22-3-.6,0,.17,1.48l-1.6-2.28c1.91,3,2.47,3.81,2.79,4.79-.27-.26-1.34-1.78-.85-1.26-1-1.05,1.38,2.26.28,1.22l-.94-1.51c-.32,0,.25.73,1.33,2.5.52,1-.79-.29-2.26-2.34.85,1.28,1.92,3,1.38,2.53a13.39,13.39,0,0,1-1-1.54c-1.42-1.32,1.35,3-.45.93-.53-.75-.8-1.12-1-1.34.32-.12.6-.16.7,0-1.46-2.11-1.92-2.34-3.78-5.37,1,1.71,3,5.37,2.13,4.52l-.53-.71-.14-.26c-.19-.18-.1.05.1.43-.31-.3-.53-.53-.61-.52-1.22-1.74-.89-.78-1.06-.8,1.59,2.32,1.19,2.05,2.62,3.88a.63.63,0,0,1-.16-.44,1.16,1.16,0,0,0-.11-.27l.13.21a.84.84,0,0,1,.17-.34c.71,1.24,1.3,2.3.3,1.09l2.38,3.85c-2.35-3.14-3.82-4.71-5.21-6.69.55,1.53-.2,1.38,2.5,5.93.28.63-.94-1.19-1.44-1.86a6.58,6.58,0,0,0-.51-1.11c.55,1.26-.28.82,1.7,3.93-1.16-1.23-1.73-2.93-1.73-2.2l-.57-1c-3.85-4.52,4,8.63-.8,2.74a8.7,8.7,0,0,1,.79,1c-2.64-2.3-.12,3.75-3.77-.22-.8-.76.41,1.26,1.2,2.87l-1.63-2.54,1.57,3.13c1,2.4-4.48-5.95-2.42-1.55l1.11,1.7c-.36-.22.1,1.35-1.08-.67.18.33,1,1.85.43,1l-.82-1.35,1,2.56c-.9-.79-3.18-5.41-3.78-5.4a35.87,35.87,0,0,0,2.48,5.12,9.05,9.05,0,0,1,1.5,2.09l.26.81c2.36,4,4.66,8.19,6.73,10.74l-1.18-2.62,1.25,1.88-.16.27c1.22,1.74.34.08-.22-1.09.64,1,1.11,1.71,1.39,2.06l-2-4a37.13,37.13,0,0,0,2.44,3.92c-.93-1.85-2.23-3.42-2.71-4.71,1.22,1.73,2.07,3.23,1.3,1.58a16.76,16.76,0,0,1,1.21,2.18c-.6-1.32.06-.75-1.15-2.91,1.49,2.15.12-.87,2.4,2.9a21.47,21.47,0,0,1-1.53-3.34c2.52,4.65.65,0,3.55,4.83-2.31-4.15-.47-2.19-1.55-4.62.18.33.55,1,.4.81a17.48,17.48,0,0,1,1.77,2.11,70.35,70.35,0,0,1-3.39-6.41c2.22,3.08,2.31,4,4.3,7-1.69-2.69-1.3-2.92-2.78-5.11a43.82,43.82,0,0,1,2.55,3.57c-2.57-4.16-.29-.8-1.75-3.42,1.52,1.89,2.51,3.84,2,2.42A14.73,14.73,0,0,1,501,209.11ZM502.54,198l0,.05,0,.21Zm.48-.37a.25.25,0,0,0-.28.05,8.82,8.82,0,0,1-1-1.61A12.92,12.92,0,0,0,503,197.63Zm-12-15.41c-.15-.37.19.07.52.54a1.09,1.09,0,0,0,.06.36l.19.29Z" transform="translate(-159.85 -115.11)"/><path class="cls-1" d="M492.94,185.36a1,1,0,0,1,.09.19l.4.5-.47-.75S493,185.34,492.94,185.36Z" transform="translate(-159.85 -115.11)"/><path class="cls-1" d="M536.72,155.89l0,0a3.11,3.11,0,0,1,.22.33Z" transform="translate(-159.85 -115.11)"/><polygon class="cls-1" points="353.34 81.69 352.9 81.13 353.24 81.65 353.34 81.69"/><path class="cls-1" d="M544.25,162.71c.12.21.26.43.38.61C544.54,163.16,544.4,162.94,544.25,162.71Z" transform="translate(-159.85 -115.11)"/><path class="cls-1" d="M545.72,162.61l.65.79A6.91,6.91,0,0,0,545.72,162.61Z" transform="translate(-159.85 -115.11)"/><path class="cls-1" d="M547.31,163.35c-.24-.44-.4-.77-.56-1.07h0Z" transform="translate(-159.85 -115.11)"/><path class="cls-1" d="M535.51,174.33a.58.58,0,0,0,0,.13C535.8,175,535.73,174.74,535.51,174.33Z" transform="translate(-159.85 -115.11)"/><path class="cls-1" d="M535.74,166.29c.23.46.46.91.58,1.2C536.51,167.63,536.6,167.64,535.74,166.29Z" transform="translate(-159.85 -115.11)"/><path class="cls-1" d="M533.75,179.9l0,0s0,0,0,0Z" transform="translate(-159.85 -115.11)"/><path class="cls-1" d="M536.11,167.57c.37.43.37.29.21-.08C536.16,167.37,535.94,167.17,536.11,167.57Z" transform="translate(-159.85 -115.11)"/><path class="cls-1" d="M551.85,162.41l.1.07-.2-.4Z" transform="translate(-159.85 -115.11)"/><path class="cls-1" d="M551.75,162.08l-.1-.32S551.61,161.8,551.75,162.08Z" transform="translate(-159.85 -115.11)"/><path class="cls-1" d="M551.43,161.07l.22.69S551.77,161.8,551.43,161.07Z" transform="translate(-159.85 -115.11)"/><path class="cls-1" d="M550.05,161.88l.46.92C550.4,162.6,550.26,162.31,550.05,161.88Z" transform="translate(-159.85 -115.11)"/><path class="cls-1" d="M549.82,162.34c.19.16,1.22,1.81,1,1.18l-.36-.72C551.15,164.17,549.1,160.77,549.82,162.34Z" transform="translate(-159.85 -115.11)"/><path class="cls-1" d="M542.36,152l.7.54a10.85,10.85,0,0,1-1.3-2.48C539.83,147.44,543,152.19,542.36,152Z" transform="translate(-159.85 -115.11)"/><path class="cls-1" d="M540.61,151.17a8.92,8.92,0,0,0-1-1.94A5.66,5.66,0,0,0,540.61,151.17Z" transform="translate(-159.85 -115.11)"/><path class="cls-1" d="M533.34,155.24l-1.29-2.2C532.1,153.44,532.56,153.89,533.34,155.24Z" transform="translate(-159.85 -115.11)"/><polygon class="cls-1" points="379.04 52.25 379.98 53.53 378.81 51.5 379.04 52.25"/><polygon class="cls-1" points="368.67 37.24 368.53 36.89 368.8 37.82 368.67 37.24"/><path class="cls-1" d="M516.78,161.92l2.08,2.36C518.58,163.78,516.31,161.07,516.78,161.92Z" transform="translate(-159.85 -115.11)"/><path class="cls-1" d="M514.2,168.6c-1.14-1.09-2-1.69-1-.51C513.48,168.15,514.43,168.94,514.2,168.6Z" transform="translate(-159.85 -115.11)"/><polygon class="cls-1" points="338.81 60.98 338.22 60.1 338.62 60.91 338.81 60.98"/><path class="cls-2" d="M381,327" transform="translate(-159.85 -115.11)"/><path class="cls-2" d="M324,268" transform="translate(-159.85 -115.11)"/><path class="cls-1" d="M473.49,237.67c-2.28-2.58-7.71-8.18-6.95-6.79l8.89,9.81Z" transform="translate(-159.85 -115.11)"/><path class="cls-1" d="M454.72,221.64c4,5,11.25,13.7,19.71,22.44-8.25-9.7-4.55-5.89-14.49-17.33-.77-1.4,3.4,2.64,6.68,6.24-2.22-2.58,2.47,1.68-3.07-4.51-7.43-7.1-8.12-7-2.86-.35C458.6,226.09,456.36,223.45,454.72,221.64Z" transform="translate(-159.85 -115.11)"/><path class="cls-1" d="M415.35,224.81l.92,1.29A7.57,7.57,0,0,0,415.35,224.81Z" transform="translate(-159.85 -115.11)"/><path class="cls-1" d="M395.71,225.22a13.58,13.58,0,0,0-.67-2.76A15.62,15.62,0,0,0,395.71,225.22Z" transform="translate(-159.85 -115.11)"/><path class="cls-1" d="M388.86,212c.16.39.26.56.39.82C388.86,211.71,388.62,211.07,388.86,212Z" transform="translate(-159.85 -115.11)"/><path class="cls-1" d="M415.35,224.81,413,221.37C414.94,225.21,414.68,224.08,415.35,224.81Z" transform="translate(-159.85 -115.11)"/><path class="cls-1" d="M471.93,249.1a24.67,24.67,0,0,0-2-2.88,11.13,11.13,0,0,1,.65,1.3Z" transform="translate(-159.85 -115.11)"/><path class="cls-1" d="M416.86,211.51l.11-.09-2.81-4.59Z" transform="translate(-159.85 -115.11)"/><path class="cls-1" d="M420.58,206.53c-.39-.32,6.12,8.84,8.93,12.87-2.63-3.82-3.83-5.67-4.24-6.45Z" transform="translate(-159.85 -115.11)"/><path class="cls-1" d="M440.83,215.76l-.85-1.3C440.25,214.86,440.47,215.25,440.83,215.76Z" transform="translate(-159.85 -115.11)"/><path class="cls-1" d="M412.06,211.58,410,208.13C410.71,209.35,411.39,210.5,412.06,211.58Z" transform="translate(-159.85 -115.11)"/><path class="cls-1" d="M278.89,357.81l-1.26-1.56A6.12,6.12,0,0,0,278.89,357.81Z" transform="translate(-159.85 -115.11)"/><path class="cls-1" d="M236.63,318.38l-.2-.56-3.14-5.26Z" transform="translate(-159.85 -115.11)"/><path class="cls-1" d="M381.08,199.15l.06.21C381,198.09,381,198.32,381.08,199.15Z" transform="translate(-159.85 -115.11)"/><path class="cls-1" d="M328.48,209.86c.93,10-1.15,12.91.21,24.07C328.5,229.53,329.59,216.38,328.48,209.86Z" transform="translate(-159.85 -115.11)"/><path class="cls-1" d="M470.78,248.14c0,.18,0,.34-.21.33C470.94,248.64,471,248.54,470.78,248.14Z" transform="translate(-159.85 -115.11)"/><path class="cls-1" d="M328.69,233.93V234l.13,1.06Z" transform="translate(-159.85 -115.11)"/><path class="cls-1" d="M371.91,207.48c.23,2,.45,3.46.65,4.88C372.43,211.22,372.25,209.82,371.91,207.48Z" transform="translate(-159.85 -115.11)"/><path class="cls-1" d="M383,222l-.5-1.44A6.53,6.53,0,0,0,383,222Z" transform="translate(-159.85 -115.11)"/><path class="cls-1" d="M368.55,223.72c-.2-.85-.36-2.39-.43-.87l.15,1.36C368.23,222.68,368.26,222,368.55,223.72Z" transform="translate(-159.85 -115.11)"/><path class="cls-1" d="M363.07,224.11l.2,2.25c0-.22.1-.4.15-.61Z" transform="translate(-159.85 -115.11)"/><path class="cls-1" d="M299.09,328.83c-2.77-1.55-5.75-3.36-8.67-5.19C297.17,327.92,298.62,330.89,299.09,328.83Z" transform="translate(-159.85 -115.11)"/><path class="cls-1" d="M467.78,244.34a37.68,37.68,0,0,1,3,3.8,2.41,2.41,0,0,0-.2-.62C469.5,246.24,468.47,245.05,467.78,244.34Z" transform="translate(-159.85 -115.11)"/><path class="cls-1" d="M374.74,312.2l-1.43-1.56C373.75,311.71,374.27,312.24,374.74,312.2Z" transform="translate(-159.85 -115.11)"/><path class="cls-1" d="M312.77,305.06l.7,1.19C313.64,306.46,313.47,306.17,312.77,305.06Z" transform="translate(-159.85 -115.11)"/><path class="cls-1" d="M369.54,312.53c-.44-3.95-.8-6.24-1.12-7.73,0,.89,0,1.61,0,2.91Z" transform="translate(-159.85 -115.11)"/><path class="cls-1" d="M290.32,323.58l.1.06Z" transform="translate(-159.85 -115.11)"/><path class="cls-1" d="M304.2,349.41c1.52-1.28-10.56-9.9-16.86-15.58-2-4.1,9,6.15,15.39,10.31-2.16-3.58-12.32-12.6-11.34-12.94a47.68,47.68,0,0,1,5.12,3.8c-4.29-4-3.84-4.93-3.67-6.07s.05-2.54-5.67-7.24c1.14.65,2.2,1.29,3.15,1.89-6.28-3.92-12.55-8.1-17-11.11.1-.62-7.27-6,.93-.85-.42.13,2.83,2.29,5.26,4.09l-3.18-2.8c11.95,7.07,3.56,3.32,12.13,9-1.52-1.81-4.49-4.58-6.65-6.68s-3.45-3.57-1.57-2.91c11.75,6.86,2.68,4.33,13.67,9.56q-2.65-.67-5.26-1.41c18.74,10.48-1.83.1,18.12,11.45,2.33,0,1.27-1.56.14-3s-2.32-2.83-.06-2.76c-6.26-4.25-9.69-5.55-16-9.77-5.16-4.59,2.43-.69,9.59,2.84s13.81,6.83,6.39,1.56c-7.67-4.85-22.64-13.27-14.12-9.93l13.3,7.7c2.12-.7-19-11.29-9.12-7.82,5.18,3.09,3.9,3.48,5.62,4.14,11.19,4.79-7.29-4.83-7-5.45l12.07,6.26c-.59-1.16-2.87-3.25-5.17-5.38a49.31,49.31,0,0,1-5.93-4.48c3.48,2.07,7.14,4.25,10.8,6.23-2.82-2-2.24-2.14-.17-1.18a77.75,77.75,0,0,1,9,5.3q-4.79-3.47-9.49-7.07c.06,0,1.15.79,2.45,1.73l3.72,2.76c3.69,2.54-6-4.46-9.7-7.32-.56-.65,5.54,3.93,8.34,6.12a95.79,95.79,0,0,1-9.77-8.72c-1.76-2-1.22-2.24,3.71,1.78l2.6,2.41c1.9,1.47-2.6-2.65-6.45-6.34s-7.06-6.93-2.83-3.34l1.48,1.52c2.23,1.33,1.57-.06,2.06-.37s2.12.61,8.26,7.25c-5.64-6.56-4.16-5.28-3.32-4.6s1.1.74-6.43-8.7c4,4.44,6.59,7.61,8.88,10.37l6.77,8.27c.71.87-8.74-12.31-9.94-14.56l7.28,10.34q-3.72-5.49-7.32-11.08,4.35,6.18,8.63,12.43l-1.68-2.78c-.46-.59-3.28-4.64-5.3-7.66-1.42-2.49,0-.81,2.17,2.24s5,7.47,6.7,10.22q-2.64-4.64-5-9.46c2.52,4.42,3.31,6,4.91,8.8-6.26-11.27,6.69,11.48,1,1.17-1.44-2.48-3.69-6.55-4.93-8.78,3.92,6.58,4,6.55,2.81,3.61l3.94,7.74c.6,1,.19,0-.24-1.24s-.9-2.7-.71-2.68c-1.66-3.68-7.61-17.46-7.88-18.89l5.17,12.23c-3-7.63-2.15-4.55-5.68-13.93.93,1.3,5.82,13.92,7.4,17.94-.53-1.44-1-2.89-1.52-4.34,1.3,3.3,2.46,6.25,4.05,10.31-1.5-3.83-.2-.76.75,1.63s1.56,4.08-.85-2.63l1.35,3.7c.15.07-1.18-4.27-1.1-5-3.21-10.9-2.36-8.51-4.65-17.38.73,1.7,1.75,4.68,2.55,7.13s1.41,4.36,1.47,3.86c-.48-2.77-.93-5.11-1.45-7.59s-1.1-5.08-1.68-8.38c2.16,10.06,2.36,9.07,3.57,16.35a23.21,23.21,0,0,0,0-2.71c-.05-1.34-.23-3.53-.38-7.7-.63-4.15-1-6-1.43-9.42,0-1.7,1,4.22,1.58,9.12l.09,1.06c-.46-7.68,1.1-.33,2.08,6.35.81,6.67,2,12.59,2.1,1.89l0,1.06c.25-3.73.6-7.45,1-11.17.73,1.75-.13,7.71.58,14,.45-8.57,1.13-8,1.77-6.65s1.2,3.35,1.84-2.35c.76,15.11,1.59,14.56,2.62,12.66s2.12-5.17,2.9,4.49l-.08-7.12c.44-7,.49,4.07.78,5.7,0-5.52-.42-6.39-.15-10.26,3.57-8.57,7.37,10.46,11.5,16.91,1.54,1.91,1-36.82,2.85-19.83l-.57,13.22c1.59-7.92,3.15-7.78,4.81-7.36s3.33,1.13,4.8-5.61c-.13,3.05-.06,7-.38,7,.85,9.59,2.6.41,2.39-7.42.53.87.3,7.07.72,11.05.89,5.64,1.4-12.29,2.08-2.77a17.92,17.92,0,0,1-.21,3.87c.32-4.66,2.25,1.1,1.38-9.95,1.48,5.23,2.17-5,3.5,1.48,0-12.4,2.52,5.83,1.72-11.66.94,18.08,3.22,14.41,3.4,5.87.11,5.48,1.12,5.61,1.35,13.18.95-.31,1.6-3.75.68-13,1.74,10.72,2.32,6.3,2.76,2.65s.82-6.53,2.72,7.22c2-10,3.7-16.82,5.56-21.35,1.22,8.94.55,9.5-.05,10.13s-1.18,1.4.06,10.79c.81-3.85,1-9.65,1.37-14s.82-7.24,2.32-5.26c1,2.33.89,7.79,1.14,10.86.67-3.86,1.9-3.67,3.08-3.76s2.3-.5,2.43-5.53a30.49,30.49,0,0,1,.47,4.89c.32-.65,1.53,2.41-.12-5.63l0,2.26A129.91,129.91,0,0,1,394.46,275c-.61-5.5-1.07-10.32-1.68-13.4,4.11,23.16,3.11,5.38,8.23,34.65a63.61,63.61,0,0,0-1.72-10.79c.73,1.47,1.57,4.56,2.47,10.76.6-4.71-1.88-13.09-.51-13.21.89,3.87,1,5.43,1.87,10-1-7.7-2.18-15.38-.29-12.4.5,2.34,1.38,5.33,1,5.36.84-.83.41-6,.18-10.18s-.26-7.24,1.73-3.91c4.07,16.78,2.22,5.27,6.47,19.59l-.06-4.61-2.51-6.82c1.09,0-1.26-10.72,1-6.29l1.11,6.1,1-3.27L410,271.5c-1.4-7.63-5.77-18-3.39-14.38.25,1.52.87-.07,4.1,8.12v0c-1.06-4.66-2.27-9.53-.44-6.25,1.73,4.45,5.26,15.65,6.41,18.61-1.8-6-1.56-7-1.33-8.08s.43-2.31-1.61-8.65c.91,3,3.59,10.36,4.21,11.84l-3.14-9.66a64.6,64.6,0,0,1,4.27,10.22c1.94,1.24-7.07-17.58-2.73-10.5.18.81.78,2.21,1.09,3.73,1.5,1.7,1.66-.08,1.79-1.75s.23-3.29,1.86-1.26c6.21,13.69.2,3.9,5.51,15.42.56-1.71-.1-6.31-.57-10.16s-.74-7,.93-5.79l-1-1.35c-4.33-9.69-2.93-7.44-.8-4s5,8.09,3.29,3.36c.46,1.52,4.81,10.75,3.85,8.59,2.82,2.39.47-6-.84-12.89l2.3,4.95c3,3.91,3.27,1.43,5.27,3.17-2.38-4.9-1.52-4.36-5.63-11.15,8.71,12.92,8,8.52,6.61,3.76s-3.28-10,4.58.33c-.22.21,1.91,4.43,2.13,4.33q-.4-2.71-.87-5.39c-5.11-7.71-3.25-4.57-7.44-10.43-2.72-4.77-4.57-8.62-4.2-8.85,2.61,5.59,8,12.49,11.18,16.59-1.59-2.34-3.18-5-4.78-7.43,9.84,13.2-10-15.67-2.87-7.13l2.63,4.08c-.94-2.36-4.15-7.93-2.95-7.06,6.19,8.72,2.36,4.42,7.24,11.74.17-.48-2.35-4.89-4.11-8.11s-2.77-5.25.55-1.06c1.44,2.62,1.07,2.92,2.47,5.55,7.75,9.92,6.06,7.22,7.69,8.5l-.22-.19,4.45,3.8-2.27-2.56c-7.62-11.69-8-13-7.6-13.36s1.55.19-3.37-7.51c9.25,14.63,5.76,8.17,12.88,18a73.07,73.07,0,0,1,6.91,8c-2.63-4.14-1.26-2.76-.18-1.88s1.87,1.29-2.08-4.69c2.41,3.07.82-.15,6.66,7.71-1.13-3-4.31-5.24-7.22-9.17-3.52-5.7-.46-2.95,2.36-.81s5.34,3.67.33-4c-3.49-6.89-11.69-17.16-14.93-23a80.37,80.37,0,0,1,6.1,7.21c1.68,2.22,2.8,3.88,2.8,3.88,4.29,3.88,4.09,2.66,1.71-1.2a101.14,101.14,0,0,0,7.17,7.91c-.2-1.18-9-11-4.66-7.16,2.78,3.36,7.23,8.7,9.86,12.19-1.78-3.21-6.06-9.14-7.86-12.23,4.68,4.93,6.54,8,9.27,11.49-1.35-2.88-2.43-6.12-9.5-14.22l-3-2.5c-.14-.57,6.32,6.74,7.48,8.35,5.12,6.75-3.27-2.07-5.9-5l-1.3-2.2c-7.84-8.32-7.57-7.35-5.58-4.29s5.67,8.22,4.84,8.06L447.79,220.9Q452,226.4,456.1,232c-3-3.14-9.16-10.1-10.44-12.28-5.85-5.81,3.41,4.88-3-1.72a23,23,0,0,1-1.86-2.22l2.73,4.19c-2.16-2.74-7.65-8.9-5.82-7.31-3.5-3.32-1.81-.69-.33,1.65s2.77,4.34-1.39-.4l-.58-.85c1.22,2.64,3.1,5,5.73,8.25a157.78,157.78,0,0,1,10,13.2q-9.79-11.44-19.47-23l7.49,9.64c-.39-.24-1.21-.76-4.2-4.63,4.72,6.92,3.38,4.1,8,10.51-3.76-4.12-3.37-2.78-3.59-2.29s-1,.12-7-7.57c5.4,7.55,4.93,5.23,8.18,10.88-6.43-8.25-6.06-7.4-4.91-5.38s3.09,5.25-.06,1.6c-6.25-8.8-2.37-4.58-8.63-11.91,5.29,7.43,4.41,6.83,2.46,4.73s-5-5.7-4.18-4.13c8.47,11.81,2.57,5.63,4.58,10.15-2.75-4-6-5.6-9.55-9.54L419,211.51c8,12.33,5.7,10.54,6.78,13.43-4.72-7.41-6.49-10.39-8.36-13.86l-.42.34a50.4,50.4,0,0,1,4.18,7.84l-5.74-9.35c-.14.44,1.27,3.36,2.11,5.49s1.1,3.44-1.2.53c2.6,4.41,6.45,10.42,10,16.12s6.75,11.1,7.91,14.38c-2.88-4.73-7.76-12.85-8.66-15,.3.67,2,4.13.65,2.2l-4.36-8.23c-2.51-3.28,3.76,6.81,3,6.27-4-6.81-3.12-4.71-6.24-10.14-.31-.71,1.93,2.64.48-.09-1.09-1-3.87-4.8-7-9.91,2.28,3.87,5.34,9.2,5.58,10.24-.38.89-4.95-8.11-7.31-11.44,2.56,4.86-.61.14,5.13,10.45-.22,0-2.93-4.74-4.55-7.5,2.2,4.72-.81,2.12,5.51,13l.48.68c.1.23.09.25.19.49h0c2.15,5.49.68,4.42-1.1,2.49s-3.89-4.6-3.37-2l-1.73-3.56c1.27,4.43-.4,3.14,2.61,11.11-.25.1-3.52-6.31-5.37-10.64.7,2.94,2.4,7.05-1,1.43-2.23-6.54-2.62-5.51-1.49-4.86-2.06-2.8-4.63-8.61-1.12,1.63-3.72-9.41-5.4-11.55-4.53-8.63l3.22,6.49c.21,1.52-.45.82-1.08.15l-4.85-12.4c-3.59-7.26-1.48-.72-.06,4.65s2.29,9.52-2.78-3.08c2.81,8.88,2.92,5.92,6.36,16.25-.65-.72-2.76-5.52-4.67-10.15l-2.57-6.28-.84-2a4.42,4.42,0,0,0-.35-.76c-1.56-3.36-.13,1.29,1.32,6.24s2.95,10.2,1.7,7.94c1.57,4.47,5.69,16.47,6.21,21-1.34-1.42-6.83-18.73-7.59-22.48,0-.43.56,1,1,2.52a43.77,43.77,0,0,0-2.49-8.55l1.37,4.54c-1.78-4.52-2.4-3.79-4.5-11.28a42.2,42.2,0,0,0,3.14,9.74c-2.74-6.33-1.25.17-3.31-4,.42,1.24,1,3.2,1.54,4.84a21.45,21.45,0,0,1,.8,3c-2.79-5.32,1.89,8.83,1.52,11.1-2.38-6.86-4.29-16.74-3.58-10.66-1.74-4.62-3.25-12.17-4.08-15.95.84,4.5.13,3.13-.82.43s-2.17-6.75-2.53-7.52l-.61-3.8c.37,2.26.21,2.23.06,2.25l2.38,9.18a26.65,26.65,0,0,1-1.65-5.4c1.2,6.1,3.81,15.33,5.26,23.71-1.39-4.63.13,5.28-2.71-7,1.87,4-2.84-12.34-2.57-14.48.2,1.5,0,1.48-.54-.11-.33-1.37-.54-2.55-.64-3.27-3.15-10.84,2.72,14,1.72,13.91-1.34-7-2.93-13.15-2.75-11.64.35.08,2.57,11.57,3.28,17-1.7-5.3.12,4.17-.36,3.61l.89,2.47c1.22,7,.69,6.15.61,8.45-1.06-5.43-.26-3.83-.89-6.19.9,6.19,0,3.08-1-.55s-2-7.76-1.69-3.55c-1.12-4.68-2.27-13.15-3.06-16.32.78,9.21-2.27-9.47-1.79-1.86,1.64,9.4,1.37,7.09,2.17,16.37.13-2.28.24-4.55.3-6.84q.71,6.93,1.28,13.85c.48.07,0-6.06.49-4.51a89.92,89.92,0,0,0,2,13.19c-1.46-7-1.42-4.91-1.34-2.22s.19,5.94-.89,1.22l-3.39-23.38c-1.22-5.15-1.15-2.09-1.13,1.54s0,7.84-1,5l.91,4c1,9.33-.67,1.4-.67,5.24-.85-7.86-1.45-10.68-2.16-15.55.66,5.82-.95-.44.52,15.26l-1.63-10.28c-1.41-4.14.8,22.51-.63,19.94-.37-8.58-1.31-14.12-1.12-20.29-.35-.06-.77-1.47-.34,4-.57-4.9-.18,10.7-1.09,3.24.1,3.47.63,11.72.14,11.1-.15-1.59-.26-3.89-.26-3.89.27,3.89-.33,5.34.64,14-1.45-12.24-2.2-11.74-3-10.82s-1.55,2.29-2.52-8.27c-.72,2.68-1.66,5.26-2.42,5.86,0-2.36-.12-3.93,0-3.12-1.28-7.31,0,22.69-1.54,14.52-.95-12.74.5-6.92,0-11.74-.42-13-.74-12.09-1.13-9.84s-.87,5.84-1.41-1.73l.17-1.54c-.75-8.82-1.35,9.87-2.45,8,0,0,0-2.3,0-3.93-.6,13.26-2,17.66-3.07,21.33.32-10.16.47-5.38.26-15.71-.47,1.47.17,16.59-.79,19.49-.32-5.57-1-10.44-1.07-21.46l.88-.6c-.44-14.26-1.12.49-1.59-2l.08-6.23c-1.35,2-1.45,17.73-2.93,16.6l.12,4.73c-.93,15.55-.63-8.77-1.53,2.8l-.13-15.8c-.56,3.81-2,15.25-3.05,18.21.66-11.7,1.88-17.68,2.62-24.63-.52-.12-1.84,1.15-2.19,8.94.23-1.52.54-5.39.74-3-.78,12.4-1.71,18.5-2.8,18.22.43-30.61-2.78-7.74-3.51-31.51-2.07,11.31-4.08-4.85-6.68-3,1.1,23.81-.74.68-.33,25.13-.54,1.58-.76,1.18-.83-.41q-.93-7.29-2-14.58c-.58-7.11.47-5.4.33-10.88-1.41-1.85-.77-10.36-1.86-16.83.38,8.74-.2,12.53-1.09,9.21l1.39,11.25c-1.5,13.05-2.28-20.47-3.91-7.52l.37-7.71c-.83,4.55-4.18,0-4.07,19.69-.36-2.81-1.08-9.47-.62-11.26-.81-.69-1.67.31-2.4,2s-1.37,4.07-2,6.18c-1.36,4.23-2.42,7.28-4.52,1.44l-.58-5.95c-.43,1.79.56,11.25-1.1,5.39-.35-2.45-.67-5.93-1-6.24-.06,2.09.07,10.55-1.31,7.23l-.48-6.73c-2.37-3.61-3,.65-3,6.31s.62,12.77,0,15c-2.11-8.55-4.1-14.11-5.92-17.8a27.57,27.57,0,0,0-4.46-6.72l-.63-2.41c-2.37-.57-3.07,3.44-3.11,8.43s.52,11,.24,14.75c-4.38-8.62-7-9.8-9.25-9.94s-4.28.84-8.36-3.13c1.94,2.63,6,12.33,6.33,14.14-1.17-1.42-.26,1.53.06,3s0,1.55-3.73-5.61l.4.15c-8-13.72-7.68-9.11-9.11-8.83l10.31,18.43c-4.5-6.29-7-8.47-8.29-8.64s-1.45,1.68-1.41,3.58.2,3.82-.69,3.93-2.86-1.57-7.25-6.89c2.38,4.81,1.5,5.34,4.05,10.07l-6.75-9.1c-3.62-.83-5.59-1.14-6.13,2.94l-4.71-6.63c-.93.32,3.9,6.95,9,13.59s10.35,13.34,10.14,14L250,239c-.89,1.05-4.39-.68-6.62-.89s-3.23,1,1.37,7.35c-1.75-1.75-5.23-5.21-5.39-6-.62.34-3.58-.59-4.26.34s1,3.64,9.84,11.2c-5.63-5-6.41-4.72-5.19-2.44a78.59,78.59,0,0,0,6.61,9l-8.45-7.3c5.1,5.06,8.44,8.16,10.76,10.48a31.65,31.65,0,0,1,4.78,5.67c-1.33-.61-7.21-5.24-4.69-3.88-2.64-1.31-.7.53,1.24,2.34s3.87,3.62,1.1,2.41l-5.39-4.73c-1.41.54,1.69,2.77,8.07,8.19,1.62,1.62.79,1.63-1.53.59a85,85,0,0,1-10.33-5.92c5,3.65,11.46,8.79,8.7,7.74a47.85,47.85,0,0,1-6-4.31c-3.72-1.2-1.41,1.31.65,3.38s3.85,3.81-1.19,1.6a65.73,65.73,0,0,0-5.83-3.2c1.09-1.38,2.29-2.27,2.91-1.71-4.33-2.77-7.06-4.08-10.15-5.75a81.34,81.34,0,0,1-12.2-8.08c2.92,2.69,7.69,6.72,11.18,9.85s5.68,5.35,3.24,4.78c-.89-.43-1.77-.86-3.18-1.59l-.92-.71c-1.06-.2-.38.55,1,1.65-1.7-.41-2.94-.74-3.3-.41-3.77-2-5-2.08-5.37-1.66a.36.36,0,0,0-.1.18.28.28,0,0,0,0,.13,2.22,2.22,0,0,0,.1.31c.09.22.17.42,0,.47,9.94,5.25,8.07,4.92,16.53,8.79a2.71,2.71,0,0,1-1.42-1.19,6.9,6.9,0,0,0-.94-.72l.86.5a1.24,1.24,0,0,1-.09-.33c0-.15,0-.3,0-.46a7.75,7.75,0,0,1,.17-1,65.72,65.72,0,0,1,5.42,3.91c.43.39.53.62.16.6a14.2,14.2,0,0,1-2.61-1l15.72,9.08c-14.14-6.82-22.18-9.74-30.78-14.17,2.51,2,3.1,3.1,5.33,5.05S236,281.73,245,287.25c2.2,1.63-5.46-2.63-8.4-4.17a41.26,41.26,0,0,0-4-2.79,25.17,25.17,0,0,1,3.73,3.42c1.29,1.14,3.6,2.86,9.91,6.68-6.11-2.74-11.48-7.27-9.9-5.2l-3.8-2.44a45.13,45.13,0,0,0-4.75-2.2c-.63-.22-.41.06.34.7,1.51,1.27,5.14,3.95,8.52,6.64s6.52,5.26,7.17,6.27c.34.5.05.59-1.1,0a59.88,59.88,0,0,1-6.35-3.91c1.55,1,2.28,1.5,4.27,3-3-1.57-4-1.71-4.2-1.17s.47,1.82.87,2.95.56,2.12-.4,2-3.09-1.41-7.07-4.91c-3.3-2.76,3.07,4.07,7.49,9.62l-8.13-8.82q4.4,5.31,8.63,10.74c2.87,4.18-2.37-1.12-6.62-5.7s-7.58-8.42-2.25-.6l5,6.29c-1.29-1,1.45,4.56-3.85-2.93.82,1.2,4.71,6.83,2.13,3.53l-3.59-5c1.75,3,3.44,6.16,5,9.27-1.68-1.64-5-6.79-8.15-11.56s-6.12-9.18-6.75-9.54c.53,1.05,2.73,4.94,5,9s4.61,8.4,5.75,10.12c.32.17,2.45,3.05,5.7,8.29l1.16,3,7,12c2.35,4,4.67,7.9,6.93,11.64,4.55,7.48,9,14.21,13.59,19.13q-2.21-5.28-4.58-10.48l5.4,7.34-1,1.21c5.33,6.77,1.81.11-.55-4.48a66.82,66.82,0,0,0,6.18,8q-4.16-7.87-8.55-15.61c4.35,5.88,7.55,12.35,10.89,15a87.54,87.54,0,0,0-6.78-9.87,43.22,43.22,0,0,1-5.28-8.29c5.52,6.54,9.42,12.24,6,5.86a46.68,46.68,0,0,1,5.47,8.34c-2.63-5.16.59-3.28-5.05-11.42,3.52,4,3.7,3,4.32,2.81s1.72.41,7.22,7.31c-2.38-3.49-7.47-11.68-7.37-12.66,6.21,8.52,7,8.33,8.07,8.15s2.33-.36,9.67,8.26c-5.8-7.52-6.44-9.72-6.29-11.22s1.05-2.35-1.93-6.74c1,1.14,3,3.47,2.15,2.89,1.91.39,6.19,4.22,9.3,6.21a141.27,141.27,0,0,1-11.14-12.45c-2.55-3.2-4.54-5.91-7.8-9.49a105.19,105.19,0,0,1,12.27,11.32A145,145,0,0,0,296,352.05c-9.25-8.71-7.56-10.42-15.71-17.21,7.61,5.58,3.94,2.45,14,10.71-7.25-6.58-7.72-7.3-7.42-7.46s1.37.21-2.92-4c8.28,5.2,14.24,11.6,10.79,6.48a34.88,34.88,0,0,1,6.68,5.6A37.29,37.29,0,0,1,304.2,349.41Zm-10.88-45.5.2.12.43.53C293.84,304.44,293.68,304.27,293.32,303.91Zm.34-1c-.43-.12-.58,0-.59.17a68.15,68.15,0,0,1-6.53-4.07C288.74,300.41,290.8,301.31,293.66,302.91Zm-69.77-34.78c-1.15-1.22.87-.34,2.93.7a3.87,3.87,0,0,0,.77,1.44l1.18.7C226.9,269.92,225.15,268.92,223.89,268.13Z" transform="translate(-159.85 -115.11)"/><path class="cls-1" d="M236.61,275.63a8.11,8.11,0,0,1,.66.49l2.32,1-3.06-1.74A1,1,0,0,0,236.61,275.63Z" transform="translate(-159.85 -115.11)"/><path class="cls-1" d="M416.42,226.31l-.15-.21c.23.38.46.76.82,1.38Z" transform="translate(-159.85 -115.11)"/><polygon class="cls-1" points="155.68 194.95 153.99 192.56 155.43 194.67 155.68 194.95"/><path class="cls-1" d="M445.36,254c.56.82,1.15,1.65,1.7,2.32C446.66,255.72,446,254.91,445.36,254Z" transform="translate(-159.85 -115.11)"/><path class="cls-1" d="M451.23,253.09l2.92,2.83A32.89,32.89,0,0,0,451.23,253.09Z" transform="translate(-159.85 -115.11)"/><path class="cls-1" d="M457.9,255.17c-1.13-1.62-2-2.83-2.8-3.94l0,0Z" transform="translate(-159.85 -115.11)"/><path class="cls-1" d="M397.43,295.82a1.13,1.13,0,0,0-.08.54C397.35,298.58,397.47,297.68,397.43,295.82Z" transform="translate(-159.85 -115.11)"/><path class="cls-1" d="M410.72,265.27c.46,2,.89,4,1.08,5.24C412.4,271.23,412.74,271.34,410.72,265.27Z" transform="translate(-159.85 -115.11)"/><path class="cls-1" d="M374.9,312.39v-.2c-.05.05-.1,0-.15,0Z" transform="translate(-159.85 -115.11)"/><path class="cls-1" d="M410.87,270.6c1,2,1.16,1.48.93-.09C411.29,269.89,410.62,268.89,410.87,270.6Z" transform="translate(-159.85 -115.11)"/><path class="cls-1" d="M475.49,247.35l.46.2q-.75-.83-1.2-1.35Z" transform="translate(-159.85 -115.11)"/><path class="cls-1" d="M474.75,246.2l-.73-1.14C474,245.13,473.94,245.26,474.75,246.2Z" transform="translate(-159.85 -115.11)"/><path class="cls-1" d="M472.46,242.65l1.56,2.41C474.16,245,474.55,245.09,472.46,242.65Z" transform="translate(-159.85 -115.11)"/><path class="cls-1" d="M467.83,247.15l2.6,3.15C469.91,249.64,469.07,248.61,467.83,247.15Z" transform="translate(-159.85 -115.11)"/><path class="cls-1" d="M467.3,249.15c.9.46,6.41,6,5.19,3.65l-2.06-2.5C474.14,255.11,463.16,243.66,467.3,249.15Z" transform="translate(-159.85 -115.11)"/><path class="cls-1" d="M430.91,213.74l2.83,1.94c-2.83-3.3-6.6-7.77-6.89-8.86C417.9,197.34,433.05,214.31,430.91,213.74Z" transform="translate(-159.85 -115.11)"/><path class="cls-1" d="M424.65,210.58c-.78-1.93-3.74-5.08-5.16-7.08A37,37,0,0,0,424.65,210.58Z" transform="translate(-159.85 -115.11)"/><path class="cls-1" d="M406.29,221.31,402.12,212C402.41,213.46,403.75,215.59,406.29,221.31Z" transform="translate(-159.85 -115.11)"/><polygon class="cls-1" points="262.46 156.86 265.39 162.53 262.12 153.73 262.46 156.86"/><polygon class="cls-1" points="233.57 89.89 233.18 88.47 233.99 92.14 233.57 89.89"/><path class="cls-1" d="M363.58,214.13l.73,12.58C364.49,224.44,363.83,210.29,363.58,214.13Z" transform="translate(-159.85 -115.11)"/><path class="cls-1" d="M346.47,227.21c-.16-6.3-.66-10.36-1-4.17C345.85,223.91,346.25,228.83,346.47,227.21Z" transform="translate(-159.85 -115.11)"/><polygon class="cls-1" points="104.33 106.38 102.79 102.4 103.45 106.08 104.33 106.38"/></svg>