<svg id="Layer_1" data-name="Layer 1" xmlns="http://www.w3.org/2000/svg" viewBox="0 0 901.71 126.97"><defs><style>.cls-1{fill:#fff;}</style></defs><path class="cls-1" d="M116,401.5c-.63-11.82,4-20.29,13.07-27.62,10.11-8.16,21.9-11.23,34.65-12.18,5.55-.41,11.45-.6,16.56-3,4.95-2.34,8.35-7.13,13.08-9.94,1.92-1.14,4.81-2.82,7.15-1.95,1.65.61,1.53,1.48,1.74,3.16.58,4.69,1.47,10.25,5.07,13.68,9.35,8.94,24.64-.07,32.74,10.35,3.86,5,6.45,10.27,12.1,13.61,5.34,3.15,11.75,3.71,17.77,2.77s10.88-4,16.3-6.6c5.86-2.86,12.12-5,17.69-8.46,4.26-2.6,8-6,12.28-8.61a87.15,87.15,0,0,1,13.4-6.76,121.43,121.43,0,0,1,36.55-7.82c10-.69,19.76.12,29.73.81a327,327,0,0,1,38.58,4.66c11.8,2.23,22.86,6.18,34.42,9.27,7.52,2,18.88,5,24.82-2,1.92-2.24,2.85-5.34,4.2-7.94a84.16,84.16,0,0,1,5.47-9.18,48.79,48.79,0,0,1,12.87-13.07c22.94-15.23,53.38-2.68,65.7,20.22,6,11.18,5,22.65.43,34.07a52.43,52.43,0,0,1-5,9.73c-1.73,2.58-4,5-4.09,8.3-.07,4.94,4.3,8.4,8.1,10.74,4.25,2.61,8.61,5.05,13,7.47,1.63.9,3.27,1.78,4.91,2.67,2.43,1.31,3.51,1.94,2.21,4.7-1.07,2.25-3.93,5.11-6.7,4.39-2-.53-2.77-3-3.76-4.7-2.62-4.59-5.28-9.2-8.08-13.69-2.34-3.75-5.76-8.74-10.48-9.41-5.84-.84-11.72,5-16.92,6.89a45.92,45.92,0,0,1-40.74-4.45,45.46,45.46,0,0,1-20.61-34.22,7.33,7.33,0,0,1-.13-2.08c-.41,1.42-.14.18,1.09,0a34.67,34.67,0,0,1,5.21-.47c3.68.06,7.36.2,11,.24l24.87.28c19.86.23,39.66.37,59.52,0,8.56-.17,16.83-1.17,25.37-2.05,14.84-1.52,29.73-2.53,44.65-2.92a638.46,638.46,0,0,1,78.82,3.26c28.47,2.78,56.56,6.82,85.21,7,23.16.19,46.18.9,69.23-1.87,9.67-1.16,19.74-2.45,28.84-6.1,5-2,9.38-5.13,14.13-7.58a165,165,0,0,1,16.3-7.16c9.47-3.66,18.75-7.32,26.86-13.57,4-3.07,8.77-6.72,11.41-11,.88-1.44,1.56-3.06,2.33-4.57.18-.36,1-1.42.91-1.8s-1.55,1.67-1.55,1.67a12.54,12.54,0,0,0,.83,2.26,11,11,0,0,1-.49,8.29c-1.39,2.72-4.19,4.1-6.46,6-3.31,2.8-5.45,6.76-8.7,9.72-7.28,6.62-15.67,11.91-23,18.49-7.08,6.35-13.7,14.19-15.29,23.85-.93,5.67,7.74,8.11,8.68,2.4,1.75-10.64,10.48-18.11,18.47-24.52,7.57-6.07,16.47-11.38,22.47-19.15a27,27,0,0,1,5.21-5.53c2.37-1.79,4.65-3.55,6.11-6.2a20.91,20.91,0,0,0,.95-18c-2-5.11-9.34-9.81-14.18-4.94-2.13,2.14-2.76,5.7-4.55,8.08-6.66,8.84-17.9,14.28-27.93,18.18-5.28,2.06-10.58,4.06-15.76,6.37-6.2,2.76-11.84,6.4-17.86,9.48-8.59,4.4-19.48,5.46-28.92,6.54a320.7,320.7,0,0,1-34.5,2.09c-29.15.2-58.21-.51-87.18-3.94-27.84-3.29-55.76-6.15-83.82-6.77q-22.35-.5-44.71.82c-14.47.85-28.86,3.21-43.29,4-16.23.91-32.65.61-48.89.42-16.93-.21-33.88-.16-50.8-.6-5.81-.15-15.52-1-18.78,5.27-2.7,5.23.22,14.49,2,19.64,9.44,27.43,39.75,43.26,67.65,34.62a55.45,55.45,0,0,0,10.4-4.44,40.48,40.48,0,0,1,3.79-2.28c1.84-.76,1.65-.56,3.18,1.16,3.51,4,5.88,9.25,8.55,13.81,2.4,4.1,4.39,9.29,9,11.28,5.87,2.51,12.07,0,16.19-4.4,3.51-3.76,6-10.22,3.41-15.13-2.26-4.25-7.66-6.13-11.67-8.36-4.41-2.45-8.95-4.84-13.17-7.62a12.35,12.35,0,0,1-1.82-1.31c-1.54-1.44-1.06-1-.23-2.39,2.06-3.52,4.45-6.61,6.13-10.4,5.21-11.77,7.93-23.72,4.06-36.36-4-13.15-14.06-24.34-25.53-31.67a52,52,0,0,0-69.22,11.65,80.86,80.86,0,0,0-5.48,7.88c-2.16,3.56-3.52,7.89-5.85,11.28-1.92,2.79-6,2-9.06,1.51-11.62-1.87-22.53-6.91-34-9.37a319.89,319.89,0,0,0-42.13-6c-10.36-.81-20.88-1.95-31.28-1.51-24.38,1-48.4,7.09-67.94,22.19-5.38,4.15-11.69,6.57-17.82,9.37s-11.49,6.73-18.22,7.31c-7.66.66-12.86-2.94-16.91-9.19-3.43-5.31-7.57-10.29-13.91-12.05s-12.84,0-19-1.67c-5.77-1.6-5.25-7.18-6.14-12a10.63,10.63,0,0,0-9.12-8.94c-6.2-1.06-11.87,2-16.69,5.6s-7.7,7.48-13.82,8.49c-5.85,1-11.8,1-17.66,2-13.69,2.33-25.29,7.58-35.27,17.45-8.29,8.2-12,18.51-11.33,30.09.31,5.76,9.31,5.8,9,0Z" transform="translate(-106.93 -319.11)"/></svg>