<svg id="Default" xmlns="http://www.w3.org/2000/svg" width="200" height="54" viewBox="0 0 200 53.99"><defs><style>.cls-1,.cls-3,.cls-5{fill:none;}.cls-1{stroke:#000;}.cls-1,.cls-5{stroke-miterlimit:10;}.cls-2,.cls-4{fill:#fff;}.cls-3,.cls-5{stroke:#fff;}.cls-3{stroke-linecap:round;stroke-linejoin:round;stroke-width:0.75px;}.cls-4{isolation:isolate;font-size:24px;font-family:TimesNewRomanPSMT, Times New Roman;}</style></defs><path class="cls-1" d="M174.14-141.1" transform="translate(-0.03 -0.01)"/><path class="cls-2" d="M30.64,37.28C32.52,41.6,35.89,46.82,42.28,54c-7.86-5-12.65-10.3-15.76-15.34A11,11,0,0,0,30.64,37.28Z" transform="translate(-0.03 -0.01)"/><path class="cls-2" d="M19.28,19.15C17.28,13.4,13.8,9.81.5,6.73L0,6c14.09,3.15,19.12,6.35,24.69,6.41s11.64-3,24.81-10.3l-.22.65C37.39,9.21,33,13.25,30.6,17.51c-.18.32-.35.65-.51,1A10.69,10.69,0,0,0,19.28,19.15Z" transform="translate(-0.03 -0.01)"/><path class="cls-2" d="M15.74,28.77l-6.33,2c.43,1.37.86,2.74,1.3,4.11l6.33-2A9.63,9.63,0,0,1,15.74,28.77Z" transform="translate(-0.03 -0.01)"/><path class="cls-3" d="M31.66,34.46a9.1,9.1,0,1,0-6.38,2.66A9.1,9.1,0,0,0,31.66,34.46Z" transform="translate(-0.03 -0.01)"/><path class="cls-2" d="M27.34,6.41a3.75,3.75,0,1,0-5.31,0A3.75,3.75,0,0,0,27.34,6.41Z" transform="translate(-0.03 -0.01)"/><text class="cls-4" transform="translate(43.16 35.67)">Easy’natomy</text><path class="cls-5" d="M80.12,50.43" transform="translate(-0.03 -0.01)"/><path class="cls-5" d="M42.28,54" transform="translate(-0.03 -0.01)"/><path class="cls-5" d="M100.92,27.64" transform="translate(-0.03 -0.01)"/><path class="cls-5" d="M100.79,28.06" transform="translate(-0.03 -0.01)"/></svg>