<svg id="Default" xmlns="http://www.w3.org/2000/svg" width="200" height="54" viewBox="0 0 200 54"><defs><style>.cls-1,.cls-3,.cls-6{fill:#fff;}.cls-2,.cls-4,.cls-5{fill:none;}.cls-2,.cls-5,.cls-6{stroke:#fff;}.cls-2{stroke-linecap:round;stroke-linejoin:round;stroke-width:0.75px;}.cls-3{font-size:24px;font-family:TimesNewRomanPSMT, Times New Roman;}.cls-4{stroke:#000;}.cls-4,.cls-5,.cls-6{stroke-miterlimit:10;}</style></defs><path class="cls-1" d="M103.49,393.54c1.88,4.32,5.25,9.55,11.65,16.72-7.87-5-12.66-10.29-15.76-15.34A10.54,10.54,0,0,0,103.49,393.54Z" transform="translate(-72.85 -356.26)"/><path class="cls-1" d="M92.11,375.41c-2-5.75-5.48-9.34-18.79-12.42l-.47-.68c14.1,3.14,19.12,6.34,24.69,6.41s11.65-3,24.82-10.31l-.23.65c-11.91,6.41-16.27,10.46-18.7,14.72-.18.31-.35.63-.51,1A10.69,10.69,0,0,0,92.11,375.41Z" transform="translate(-72.85 -356.26)"/><path class="cls-1" d="M88.6,385l-6.33,2,1.29,4.11,6.33-2A9.44,9.44,0,0,1,88.6,385Z" transform="translate(-72.85 -356.26)"/><path class="cls-2" d="M104.52,390.72a9.1,9.1,0,1,0-6.43,2.66A9.06,9.06,0,0,0,104.52,390.72Z" transform="translate(-72.85 -356.26)"/><path class="cls-1" d="M100.19,362.67a3.75,3.75,0,1,0-5.31,0A3.75,3.75,0,0,0,100.19,362.67Z" transform="translate(-72.85 -356.26)"/><path class="cls-1" d="M90,382.85c.76,2.5,1.73,5.48,2.44,7.41a8.22,8.22,0,0,0,13.15-2.56,50.44,50.44,0,0,1-.54-7.81,8.23,8.23,0,0,0-15.05,3Z" transform="translate(-72.85 -356.26)"/><text class="cls-3" transform="translate(43.19 35.68)"><tspan xml:space="preserve">Easy  natomy</tspan></text><path class="cls-4" d="M241.86,317.2" transform="translate(-72.85 -356.26)"/><path class="cls-5" d="M153,406.69" transform="translate(-72.85 -356.26)"/><polygon class="cls-5" points="95.93 24.84 83.35 45.38 97.62 34.31 98.99 25.89 95.93 24.84"/><polygon class="cls-6" points="95.25 22.78 101.04 24.84 108.8 4.21 103.01 2.15 95.25 22.78"/><path class="cls-5" d="M115.14,410.26" transform="translate(-72.85 -356.26)"/><path class="cls-5" d="M173.78,383.9" transform="translate(-72.85 -356.26)"/><path class="cls-5" d="M173.65,384.32" transform="translate(-72.85 -356.26)"/></svg>