<svg id="Default" xmlns="http://www.w3.org/2000/svg" width="200" height="54" viewBox="0 0 200 54"><defs><style>.cls-1,.cls-3,.cls-5{fill:none;}.cls-1{stroke:#000;}.cls-1,.cls-5,.cls-6{stroke-miterlimit:10;}.cls-2,.cls-4,.cls-6{fill:#fff;}.cls-3,.cls-5,.cls-6{stroke:#fff;}.cls-3{stroke-linecap:round;stroke-linejoin:round;stroke-width:0.75px;}.cls-4{font-size:24px;font-family:TimesNewRomanPSMT, Times New Roman;}</style></defs><path class="cls-1" d="M241.86,317.2" transform="translate(-67.72 -458.3)"/><path class="cls-2" d="M98.36,495.58c1.88,4.32,5.25,9.54,11.64,16.72-7.86-5-12.65-10.3-15.76-15.34A10.92,10.92,0,0,0,98.36,495.58Z" transform="translate(-67.72 -458.3)"/><path class="cls-2" d="M87,477.45c-2-5.75-5.48-9.34-18.78-12.42l-.47-.69c14.09,3.15,19.12,6.35,24.69,6.41s11.64-3,24.81-10.3l-.22.65c-11.92,6.41-16.28,10.45-18.71,14.71q-.27.48-.51,1A10.69,10.69,0,0,0,87,477.45Z" transform="translate(-67.72 -458.3)"/><path class="cls-2" d="M83.46,487.07l-6.33,2c.43,1.37.86,2.74,1.3,4.11l6.33-2A9.63,9.63,0,0,1,83.46,487.07Z" transform="translate(-67.72 -458.3)"/><path class="cls-3" d="M99.38,492.76A9.09,9.09,0,1,0,93,495.42,9.09,9.09,0,0,0,99.38,492.76Z" transform="translate(-67.72 -458.3)"/><path class="cls-2" d="M95.06,464.71a3.75,3.75,0,1,0-5.31,0A3.77,3.77,0,0,0,95.06,464.71Z" transform="translate(-67.72 -458.3)"/><text class="cls-4" transform="translate(43.19 35.68)">Easy’natomy</text><path class="cls-5" d="M147.84,508.73" transform="translate(-67.72 -458.3)"/><polygon class="cls-5" points="120.83 14.69 96.76 14.05 113.47 20.88 121.45 17.87 120.83 14.69"/><polygon class="cls-6" points="122.28 13.07 123.38 19.12 145.13 15.54 144.03 9.49 122.28 13.07"/><path class="cls-5" d="M110,512.3" transform="translate(-67.72 -458.3)"/><path class="cls-5" d="M168.64,485.94" transform="translate(-67.72 -458.3)"/><path class="cls-5" d="M168.51,486.36" transform="translate(-67.72 -458.3)"/></svg>